<?xml version="1.0" encoding="utf-8"?>
<!-- Generator: Adobe Illustrator 24.0.1, SVG Export Plug-In . SVG Version: 6.00 Build 0)  -->
<svg version="1.1" id="Layer_1" xmlns="http://www.w3.org/2000/svg" xmlns:xlink="http://www.w3.org/1999/xlink" x="0px" y="0px"
	 viewBox="0 0 100 100" enable-background="new 0 0 100 100" xml:space="preserve">
<title>Android Studio</title>
<g id="Layer_17">
	<path fill="#373837" d="M20.6,33.7c4.6,0,8.9,0,13.4,0V20.2c-3.1,0.1-8-0.4-11.1-0.4s-5.1,0.1-7.2,1.2s-3.2,2.2-3.2,5.7
		C12.5,29.4,15.2,33.7,20.6,33.7z"/>
	<path fill="#010101" d="M20.6,34.7c-5.9,0-9.1-4.7-9.1-7.9c0-3.8,1.3-5.2,3.7-6.6s4.4-1.4,7.7-1.4c1.3,0,3,0.1,4.7,0.2
		c2.1,0.2,4.3,0.2,6.4,0.2l1,0v15.5H34c-2.5,0-4.9,0-7.4,0L20.6,34.7z M22.9,20.8c-3.2,0-4.9,0.1-6.7,1.1s-2.7,1.8-2.7,4.8
		c0,2,2.2,5.9,7.2,5.9h6H33V21.2c-1.6,0-3.6-0.1-5.6-0.2C25.8,20.9,24.1,20.8,22.9,20.8z"/>
	<path fill="#71C598" d="M38.1,33.7c12.5,0.1,25.1-0.3,37.7-0.3V33c0-3.7-3.1-9.3-6-11.8c-2.4-2-2.9-3.3-6.3-5.1
		c0.7-2,0.7-2.3,2.2-3.7c0.7-0.6,2.2-2.3,2.2-3.2c0-1.2-2-1.5-2.7-1.5c-1,0-5.1,3.5-5.9,6.2c-2.4-1.2-5-1.9-7.7-2
		c-1.7,0-3.5,0.2-5.1,0.8c-1.9,0.6-3.6,1.9-5,0.5c-0.9-0.9-1.5-2-1.8-3.3c-0.1-1.1-1.1-2-2.2-1.9c-1.3-0.1-3.4,0.7-3.2,2
		c0.4,1.5,1.2,2.8,2.2,3.9c0.8,0.9,0.9,2.1,1.7,3c-3.5,2.5-5.5,4-7.8,7.6c-1.6,2.8-2.7,5.9-3.1,9.1C30.9,33.7,34.4,33.7,38.1,33.7z"
		/>
	<path fill="#010101" d="M42.6,34.7h-4.5l0,0c-3.8,0-7.2,0-10.8,0c-0.3,0-0.6-0.1-0.8-0.3c-0.2-0.2-0.3-0.5-0.2-0.8
		c0.4-3.4,1.5-6.6,3.2-9.6c1.8-3,4.3-5.5,7.2-7.4c-0.2-0.3-0.3-0.6-0.4-0.8c-0.2-0.4-0.4-0.8-0.7-1.2c-1.2-1.3-2-2.8-2.5-4.5
		c-0.1-0.7,0.1-1.3,0.6-1.8c1-0.9,2.3-1.4,3.7-1.3c1.6,0,2.9,1.2,3.1,2.8c0.2,1,0.8,2,1.5,2.7c0.6,0.6,1.2,0.4,2.7-0.2
		c0.4-0.2,0.9-0.4,1.4-0.5c1.8-0.5,3.6-0.8,5.4-0.8c2.5,0.1,4.9,0.6,7.2,1.6c1.4-2.7,5-5.8,6.4-5.8c1.8,0,3.7,0.8,3.7,2.5
		s-2.3,3.7-2.6,3.9c-0.8,0.6-1.4,1.5-1.7,2.5c1.5,0.8,2.8,1.9,4,3.1c0.5,0.5,1.1,1.1,1.8,1.7c3,2.5,6.4,8.4,6.4,12.5v0.5
		c0,0.3-0.1,0.5-0.3,0.7c-0.2,0.2-0.4,0.3-0.7,0.3c-6.1,0-12.4,0-18.4,0.1C52.5,34.6,47.5,34.7,42.6,34.7z M38.1,32.7
		c6.4,0.1,12.9,0,19.2-0.1c5.7-0.1,11.6-0.2,17.4-0.1c-0.3-3.5-3.1-8.4-5.6-10.5c-0.8-0.6-1.4-1.2-1.9-1.8C66,18.9,64.6,17.8,63,17
		c-0.4-0.2-0.7-0.8-0.5-1.2l0.3-0.7c0.4-1.3,1.1-2.5,2.2-3.3c0.8-0.7,1.5-1.5,1.9-2.5c-0.5-0.4-1.1-0.5-1.7-0.5
		c-0.7,0.2-4.2,3.1-5,5.5c-0.1,0.3-0.3,0.5-0.6,0.6c-0.3,0.1-0.6,0.1-0.8,0c-2.2-1.2-4.7-1.8-7.2-1.9l0,0c-1.6,0-3.2,0.2-4.8,0.7
		c-0.4,0.1-0.8,0.3-1.2,0.5c-1.5,0.6-3.3,1.3-4.8-0.3c-1.1-1-1.8-2.3-2.1-3.8c0-0.6-0.6-1.2-1.2-1.1c0,0-0.1,0-0.1,0
		c-0.8,0-1.5,0.2-2.1,0.7c0.3,1.4,0.9,2.6,1.9,3.6c0.4,0.5,0.8,1.1,1,1.8c0.2,0.4,0.4,0.8,0.7,1.2c0.2,0.2,0.3,0.5,0.3,0.8
		c0,0.3-0.2,0.5-0.4,0.7c-3.4,2.4-5.3,3.8-7.5,7.4c-1.4,2.3-2.3,4.9-2.8,7.6C31.6,32.7,34.7,32.7,38.1,32.7L38.1,32.7z"/>
	<path fill="#D6E5E5" d="M58.2,26.4c0.3,0.9,1.1,1.4,2,1.4c0.9,0,1.7-0.3,2.5-0.9c0.5-0.3,0.9-0.8,1.2-1.3c0.2-0.9-0.1-1.8-0.7-2.5
		c-0.5-0.6-1.2-1-2-1.2c-0.6,0-2.5,0.2-3,1.2C57.8,24.1,57.9,25.3,58.2,26.4z"/>
	<path fill="#010101" d="M60.2,28.8L60.2,28.8c-1.4,0.1-2.7-0.8-3.1-2.2l0,0c-0.2-0.6-0.6-2.7,0.1-4c0.8-1.5,3.2-1.8,3.9-1.8
		c1,0.2,1.9,0.8,2.6,1.5c0.8,0.9,1.2,2.2,0.9,3.5c-0.3,0.8-0.8,1.4-1.6,1.9C62.3,28.3,61.3,28.7,60.2,28.8z M61.1,22.8
		c-0.5,0-1.7,0.3-1.9,0.7c-0.2,0.8-0.2,1.7,0,2.6l0,0c0.2,0.4,0.6,0.7,1.1,0.6l0,0c0.7-0.1,1.3-0.3,1.9-0.7c0.3-0.2,0.6-0.5,0.8-0.8
		c0.1-0.5-0.1-1.1-0.4-1.5C62,23.4,61.6,23,61.1,22.8L61.1,22.8z"/>
	<path fill="#D6E5E5" d="M38.7,22.8c-0.3,0.3-0.5,0.7-0.5,1.2c0,0.7,0.2,1.4,0.6,1.9c0.9,1.3,2,2.1,3.2,1.8s2.2-1.1,2.2-3.1
		c0-0.4-0.1-0.8-0.2-1.2c-0.3-0.9-1.9-1.5-2.5-1.5C40.4,21.6,39.3,22,38.7,22.8z"/>
	<path fill="#010101" d="M41.5,28.8c-1.5-0.2-2.7-1-3.5-2.3c-0.5-0.7-0.8-1.7-0.7-2.6c0.1-0.6,0.3-1.2,0.7-1.7c0.7-1,2-1.5,3.2-1.4
		h0.3c0.9,0,3,0.8,3.4,2.2c0.2,0.5,0.3,1,0.3,1.6c0,2.2-1,3.5-2.9,4.1C42,28.7,41.7,28.8,41.5,28.8z M40.7,22.8
		c-0.5,0-1,0.2-1.3,0.6l0,0c-0.2,0.2-0.3,0.4-0.3,0.6c0,0.4,0.1,0.9,0.4,1.2c0.6,0.8,1.4,1.6,2.1,1.4c0.9-0.3,1.4-0.7,1.5-2.2
		c0-0.3-0.1-0.6-0.2-0.9c-0.4-0.4-0.9-0.7-1.5-0.8L40.7,22.8L40.7,22.8z"/>
	<path fill="#4B7BB2" d="M89.6,41.6c-0.1-3.7-2.7-7-6.3-7.9c-2.2-0.7-4.5-0.3-6.8-0.3c-12.8-0.1-25.6,0.4-38.4,0.3
		c-6.1-0.1-11.4,0-17.5,0c-5.4,0-8.2-4.3-8.2-6.9c-0.1,4.6,0.4,10.8,0.5,15.4c0,2.4,0.2,4.9,0.6,7.3c0.4,2.3-0.7,12.1-0.4,14.8
		c0.2,2-0.7,9.8-0.7,12.5c0,3.5,1.1,4.6,2.1,5.7s7.7,0.7,9.3,0.8c15.8,0.4,28.7,0,44.5,0c2.8,0,10.6-0.3,13.4,0
		C81.7,83.2,89.6,44.5,89.6,41.6z"/>
	<path fill="#010101" d="M38.9,84.3c-4.8,0-9.8,0-15.1-0.2c-0.3,0-0.8,0-1.4,0c-4.8,0.1-7.6,0-8.6-1.1l-0.1-0.2
		c-1-1.1-2.2-2.5-2.2-6.1c0-1.2,0.2-3.3,0.4-5.5c0.3-2.3,0.4-4.5,0.4-6.8c-0.1-2.5,0-4.9,0.2-7.3c0.2-2.4,0.3-4.9,0.2-7.4
		c-0.4-2.5-0.6-4.9-0.6-7.4c0-1.7-0.1-3.7-0.2-5.7c-0.2-3.4-0.3-6.8-0.3-9.8c0-0.6,0.4-1,1-1l0,0c0.6,0,1,0.4,1,1
		c0,2,2.2,5.9,7.2,5.9h6c3.8,0,7.5,0,11.5,0c6.4,0.1,12.9,0,19.2-0.1s12.8-0.2,19.2-0.1c0.6,0,1.3,0,1.9,0c1.7-0.2,3.5,0,5.2,0.4
		c4.1,1,6.9,4.6,7.1,8.8c0,2.9-7.1,37.8-7.9,41.8c-0.1,0.5-0.6,0.8-1.1,0.8c-1.9-0.2-6.5-0.1-9.9,0c-1.4,0-2.6,0.1-3.4,0.1
		c-5.4,0-10.4,0-15.4,0.1C48.2,84.3,43.6,84.3,38.9,84.3z M23.6,82.2h0.2c10.4,0.3,19.5,0.2,29.1,0.1c4.9-0.1,10-0.1,15.4-0.1
		c0.8,0,2,0,3.3,0c3.1-0.1,6.9-0.1,9.2,0c3.2-15.5,7.7-38.5,7.7-40.5c0-1.2-0.4-2.3-0.9-3.3c-1-1.8-2.7-3.1-4.7-3.6
		c-1.5-0.3-3-0.5-4.5-0.3c-0.7,0-1.3,0-2,0c-6.4-0.1-12.9,0-19.2,0.1s-12.8,0.2-19.2,0.1c-4,0-7.7,0-11.5,0h-6
		c-2.7,0.1-5.3-1.1-7.1-3.1c0.1,1.6,0.1,3.2,0.2,4.8c0.1,2,0.2,4,0.2,5.7c0,2.4,0.2,4.8,0.6,7.2c0.2,2.6,0.1,5.2-0.2,7.8
		c-0.2,2.3-0.3,4.7-0.2,7c0,2.4-0.1,4.8-0.4,7.2c-0.2,2.2-0.4,4.3-0.4,5.4c0,2.9,0.8,3.8,1.7,4.8l0.1,0.2c0.7,0.6,5.5,0.5,7,0.5
		L23.6,82.2z"/>
	<path fill="#373837" d="M77.8,47.5c2,0,5.7,0.4,8.4-0.7c1-0.4,1.8-1.1,2.3-2c0.6-1,1-2.1,1.2-3.2c0,6.4-0.8,9.1-0.9,13.5
		c-0.2,9.3-0.4,18.6,0.8,27.9c0.4,2.9,0.9,6-0.5,8.5c-1.9,3.4-6.6,3.5-11.3,3.5c0.8-5.2,0.5-9.9,0.3-15.3
		C77.6,69.1,78,55.2,77.8,47.5z"/>
	<path fill="#010101" d="M77.8,96c-0.6,0-1-0.4-1-1c0,0,0-0.1,0-0.1c0.6-4.7,0.7-9.4,0.3-14.1v-1c-0.2-6.1-0.2-13.2-0.2-19.5
		c0-4.8,0-9.4-0.1-12.7c0-0.3,0.1-0.5,0.3-0.7c0.4-0.5,1.2-0.3,2-0.3c2,0.1,4.7,0.2,6.7-0.7c0.7-0.2,1.2-0.7,1.6-1.2
		c0.1-0.2,0.2-0.4,0.4-0.5c0.4-0.8,0.7-1.7,0.9-2.6c0-0.6,0.4-1,1-1s1,0.4,1,1c0,2.9-0.2,5.7-0.5,8.5c-0.2,1.6-0.3,3.2-0.4,5
		c-0.2,9.1-0.4,18.5,0.8,27.7v0.3c0.4,2.8,0.8,6.1-0.7,8.8C87.7,96,82.2,96,77.8,96z M78.8,48.5c0.1,3.2,0.1,7.4,0,11.7
		c0,6.3,0,13.4,0.2,19.4v1c0.3,4.4,0.3,8.9-0.1,13.3c4.4-0.1,7.9-0.4,9.3-3c1.2-2.2,0.8-4.9,0.4-7.6v-0.3c-1.3-9.3-1.1-18.8-0.8-28
		c0-1.9,0.2-3.5,0.4-5.2c0.1-1.1,0.2-2.2,0.3-3.5c-0.5,0.6-1.2,1-1.9,1.3c-2.4,1-5.4,0.9-7.5,0.9L78.8,48.5z"/>
	<path fill="#373837" d="M67.9,89.2c-0.8-1.4-1.4-3-2.3-4.8c-3.8-8.1-3.2-9.7-7.9-17.6c-0.4-0.7-1.7-2.5-1.7-2.5s2.8-2.1,3.5-4.2
		s0.8-6.8-0.6-8.5c-1.1-1.3-0.8-1.6-2.2-2.7C56,48.4,55,47.9,54,47.8v-4.7c0-1.5-1.2-3.5-2.7-3.5c-1.3,0-2.5,0.9-2.9,2.2
		c-0.2,0.4-0.3,0.8-0.3,1.3v4.4c-3.4,1.2-5.7,4.3-5.9,7.9c0,3,0.1,5.9,2.2,7.6c0.5,0.4,1.2,0.9,1.3,1.5c0,0.4-0.1,0.9-0.4,1.3
		c-4.4,8.2-5,13.3-10.2,21c-1.1,1.6-1.9,3.3-2.5,5.2c-0.6,1.6-0.2,3.4,1.1,4.6c0.5,0.3,1.1,0.4,1.6,0.4h0.6c0.7,0,2.8-1.8,3-2.2
		c3.6-7.6,6.8-14.5,10.1-20.2c0.8-1.3,2.5-1.8,3.8-1c0.5,0.3,0.8,0.7,1.1,1.1c0.7,1.3,1.1,2.5,1.3,2.7c0.3,0.7,0.6,1.5,0.7,2.3
		c1.9,5.8,1.8,5.8,4.8,10.8c0.3,0.5,1.5,4.3,2,4.7c0.7,0.5,0.8,1.7,3.5,1.7c2.2,0,3.7-1,3.7-3S69.1,91.1,67.9,89.2z M54.3,60.2
		c-1.5,1.4-3.6,1.9-5.5,1.2c-1.9-0.8-3-2.8-2.6-4.8c0.5-1.9,1.1-4.2,4-4.8c1.5-0.1,3,0.2,4.4,0.7c0.7,0.6,1.1,1.3,1.3,2.2
		C56.3,56.7,55.7,58.7,54.3,60.2L54.3,60.2z"/>
	<path fill="#010101" d="M66.1,98c-2.3,0-3.2-0.8-3.8-1.7c-0.1-0.1-0.1-0.2-0.2-0.3c-0.5-0.3-0.8-1.1-1.7-3.6
		c-0.2-0.7-0.4-1.2-0.5-1.4c-2.9-4.8-3-5-4.8-10.6l-0.1-0.4c-0.1-0.3-0.2-0.6-0.2-0.9c-0.1-0.4-0.2-0.8-0.4-1.2
		c-0.2-0.3-0.4-0.7-0.5-1c-0.2-0.5-0.5-1.1-0.9-1.8c-0.3-0.6-0.9-1-1.6-1c-0.7,0-1.3,0.3-1.6,0.9c-2.9,5-5.8,11-8.8,17.4l-1.3,2.7
		c-0.3,0.6-2.6,2.8-3.9,2.8h-0.6c-0.8,0.1-1.6-0.1-2.2-0.6c-1.8-1.3-2-3.8-1.5-5.7c0.6-1.9,1.5-3.8,2.6-5.4
		c2.5-3.7,4.5-7.7,6.1-11.9c1.2-3.1,2.6-6.1,4.1-9c0.1-0.2,0.2-0.4,0.3-0.7c0-0.2-0.4-0.5-0.7-0.7l-0.2-0.2
		c-2.6-2.1-2.6-5.6-2.6-8.4c0.2-3.8,2.5-7.1,5.9-8.6v-3.8c0-0.4,0.1-0.8,0.2-1.2c0-0.1,0.1-0.2,0.1-0.3c0.5-1.7,2.1-2.9,3.9-2.9
		c0.9,0,1.7,0.4,2.3,1c0.9,0.9,1.4,2.2,1.5,3.4V47c0.9,0.3,1.7,0.7,2.4,1.3c0.6,0.5,1.1,1,1.5,1.7c0.2,0.4,0.5,0.7,0.8,1
		c1.8,2.1,1.5,7.3,0.7,9.4c-0.7,1.6-1.7,3-3,4.1c0.4,0.6,1,1.4,1.2,1.8c2,3.2,3.6,6.7,4.9,10.3c0.7,1.9,1.5,4.1,3.1,7.4
		c0.3,0.5,0.5,1,0.7,1.5c0.5,1.1,1,2.1,1.5,3.1l0.4,0.7c1,1.4,1.6,3,1.6,4.7C70.8,96.4,69,98,66.1,98z M51.3,72.3h0.1
		c1.4,0,2.6,0.8,3.3,2.1c0.4,0.7,0.7,1.4,0.9,1.9c0.2,0.4,0.3,0.6,0.3,0.8c0.3,0.6,0.6,1.2,0.7,1.8c0,0.2,0.1,0.5,0.2,0.7l0.1,0.4
		c1.7,5.4,1.7,5.4,4.6,10.2c0.3,0.6,0.5,1.1,0.7,1.8c0.3,0.9,0.7,1.9,1.1,2.8c0.2,0.2,0.4,0.4,0.5,0.6c0.4,0.4,0.7,0.9,2.3,0.9
		c1.2,0,2.7-0.3,2.7-2c0-1.5-0.5-2.2-1.4-3.7l-0.4-0.7l0,0c-0.6-1.1-1.2-2.2-1.7-3.3c-0.2-0.5-0.4-1-0.7-1.5
		c-1.5-3.3-2.4-5.5-3.1-7.5c-1.2-3.5-2.8-6.8-4.7-10c-0.3-0.5-1.3-1.9-1.7-2.4c-0.3-0.4-0.2-1,0.2-1.4c1.3-1,2.4-2.3,3.1-3.7
		c0.7-1.9,0.7-6.2-0.4-7.5c-0.3-0.4-0.7-0.8-0.9-1.3c-0.3-0.5-0.6-0.9-1.1-1.2c-0.6-0.5-1.4-0.9-2.2-1c-0.5-0.1-0.9-0.5-0.9-1v-4.6
		c0-0.7-0.4-1.5-0.9-2c-0.2-0.2-0.5-0.4-0.8-0.5c-0.9,0-1.7,0.6-2,1.5c0,0.2-0.1,0.3-0.1,0.5c-0.1,0.2-0.1,0.4-0.1,0.6v4.4
		c0,0.4-0.3,0.8-0.7,1c-3,1.1-5,3.8-5.2,7c0,3,0.1,5.5,1.8,6.8l0.2,0.2c0.7,0.4,1.2,1.2,1.4,2c0,0.6-0.1,1.3-0.5,1.8
		c-1.5,2.9-2.8,5.8-4,8.9c-1.6,4.3-3.7,8.4-6.3,12.2c-1,1.5-1.8,3.2-2.4,4.9c-0.5,1.2-0.2,2.6,0.8,3.5c0.2,0.1,0.4,0.2,1,0.2h0.6
		c0.8-0.5,1.5-1.1,2.1-1.7l1.2-2.6c3-6.4,5.9-12.5,8.9-17.5C48.7,73,50,72.2,51.3,72.3z M50.6,62.6c-0.8,0-1.5-0.1-2.2-0.4
		c-2.3-1-3.7-3.4-3.2-5.9c0.4-1.8,1.2-4.8,4.8-5.5c1-0.2,4.2,0.2,5.2,0.9c0.9,0.7,1.5,1.7,1.7,2.8c0.5,2.3-0.1,4.7-1.8,6.3l0,0
		C53.8,62,52.2,62.6,50.6,62.6z M50.7,52.7c-0.1,0-0.2,0-0.4,0c-2.2,0.4-2.7,1.9-3.2,4c-0.3,1.5,0.6,3,2,3.6c1.6,0.6,3.3,0.2,4.5-1
		l0,0c1.1-1.2,1.6-2.9,1.2-4.5c-0.1-0.6-0.4-1.1-0.9-1.5C52.9,52.9,51.8,52.7,50.7,52.7z"/>
</g>
</svg>
