<?xml version="1.0" encoding="utf-8"?>
<!-- Generator: Adobe Illustrator 24.0.1, SVG Export Plug-In . SVG Version: 6.00 Build 0)  -->
<svg version="1.1" id="Layer_1" xmlns="http://www.w3.org/2000/svg" xmlns:xlink="http://www.w3.org/1999/xlink" x="0px" y="0px"
	 viewBox="0 0 100 100" enable-background="new 0 0 100 100" xml:space="preserve">
<title>Cpp</title>
<g id="Layer_2_1_">
	<path fill="#00599C" stroke="#000000" stroke-width="2" stroke-miterlimit="10" d="M90.9,74c0.7-1.1,1-2.3,1.1-3.6V30.1
		c0-1.3-0.4-2.5-1.1-3.6L49.8,50.3L90.9,74z"/>
	<path fill="#004482" stroke="#000000" stroke-width="2" stroke-miterlimit="10" d="M53.5,96.9l34.9-20.1c1.1-0.7,2-1.6,2.6-2.8
		L49.8,50.3L8.7,74c0.6,1.1,1.5,2.1,2.6,2.7l34.9,20.2C48.5,98.1,51.2,98.1,53.5,96.9z"/>
	<path fill="#659AD2" stroke="#000000" stroke-width="2" stroke-miterlimit="10" d="M90.9,26.5c-0.6-1.1-1.5-2.1-2.6-2.7L53.5,3.7
		c-2.3-1.2-5-1.2-7.3,0L11.3,23.8c-2.2,1.4-3.5,3.8-3.7,6.3v40.3c0,1.3,0.4,2.5,1.1,3.6l41.1-23.7L90.9,26.5z"/>
	<path fill="#FFFFFF" stroke="#000000" stroke-width="2" stroke-miterlimit="10" d="M49.8,78.4c-15.5,0-28.1-12.6-28.1-28.1
		s12.6-28.1,28.1-28.1c10,0,19.3,5.4,24.4,14.1l-12.2,7c-3.9-6.7-12.5-9-19.2-5.2s-9,12.5-5.2,19.2s12.5,9,19.2,5.2
		c2.1-1.2,3.9-3,5.2-5.2l12.2,7C69.1,73,59.9,78.4,49.8,78.4z"/>
	<polygon fill="#FFFFFF" stroke="#000000" stroke-miterlimit="10" points="77.9,48.7 74.8,48.7 74.8,45.6 71.7,45.6 71.7,48.7 
		68.6,48.7 68.6,51.8 71.7,51.8 71.7,55 74.8,55 74.8,51.8 77.9,51.8 	"/>
	<polygon fill="#FFFFFF" stroke="#000000" stroke-miterlimit="10" points="89.7,48.7 86.5,48.7 86.5,45.6 83.4,45.6 83.4,48.7 
		80.3,48.7 80.3,51.8 83.4,51.8 83.4,55 86.5,55 86.5,51.8 89.7,51.8 	"/>
</g>
</svg>
