<?xml version="1.0" encoding="utf-8"?>
<!-- Generator: Adobe Illustrator 24.0.1, SVG Export Plug-In . SVG Version: 6.00 Build 0)  -->
<svg version="1.1" id="Layer_1" xmlns="http://www.w3.org/2000/svg" xmlns:xlink="http://www.w3.org/1999/xlink" x="0px" y="0px"
	 viewBox="0 0 100 100" enable-background="new 0 0 100 100" xml:space="preserve">
<title>CSS</title>
<g id="Layer_6">
	<polygon id="polygon2989" fill="#264DE4" stroke="#000000" stroke-width="2" stroke-miterlimit="10" points="88,7 81,85.1 
		49.7,93.8 18.5,85.1 11.5,7 	"/>
	<polygon id="polygon2991" fill="#2965F1" stroke="#000000" stroke-width="2" stroke-miterlimit="10" points="75.1,80.1 81,13.4 
		49.8,13.4 49.8,87.2 	"/>
	<polygon id="polygon2993" fill="#EBEBEB" stroke="#000000" stroke-width="2" stroke-miterlimit="10" points="27.5,42.4 28.3,52 
		49.8,52 49.8,42.4 	"/>
	<polygon id="polygon2995" fill="#EBEBEB" stroke="#000000" stroke-width="2" stroke-miterlimit="10" points="49.8,23 49.7,23 
		25.8,23 26.6,32.6 49.8,32.6 	"/>
	<polygon id="polygon2997" fill="#EBEBEB" stroke="#000000" stroke-width="2" stroke-miterlimit="10" points="49.8,77.2 49.8,67.3 
		49.7,67.3 39,64.4 38.4,56.7 33.2,56.7 28.8,56.7 30.1,71.8 49.7,77.2 	"/>
	<polygon id="polygon3005" fill="#FFFFFF" stroke="#000000" stroke-width="2" stroke-miterlimit="10" points="61.5,52 60.4,64.4 
		49.7,67.3 49.7,77.2 69.3,71.8 69.5,70.2 71.8,45 72,42.4 73.7,23 49.7,23 49.7,32.6 63.2,32.6 62.3,42.4 49.7,42.4 49.7,52 	"/>
</g>
</svg>
