<?xml version="1.0" encoding="utf-8"?>
<!-- Generator: Adobe Illustrator 24.0.1, SVG Export Plug-In . SVG Version: 6.00 Build 0)  -->
<svg version="1.1" id="Layer_1" xmlns="http://www.w3.org/2000/svg" xmlns:xlink="http://www.w3.org/1999/xlink" x="0px" y="0px"
	 viewBox="0 0 232 100" enable-background="new 0 0 232 100" xml:space="preserve">
<title>Directx</title>
<g id="Layer_26">
	<rect fill="#FFFFFF" width="232" height="100"/>
	<path d="M25.8,30.4h-2V18.9c0-0.9,0-2,0.2-3.3h0c-0.1,0.6-0.3,1.1-0.5,1.6l-5.8,13.1h-1l-5.8-13c-0.2-0.6-0.4-1.2-0.5-1.8l0,0
		c0.1,0.7,0.1,1.8,0.1,3.3v11.4H8.4v-17h2.6l5.2,11.9c0.3,0.6,0.6,1.3,0.8,2h0.1c0.3-0.9,0.6-1.6,0.8-2.1l5.3-11.8h2.5V30.4z"/>
	<path d="M31,15.1c-0.3,0-0.7-0.1-0.9-0.4c-0.2-0.2-0.4-0.6-0.4-0.9c0-0.7,0.5-1.3,1.2-1.3c0,0,0,0,0,0c0.3,0,0.7,0.1,0.9,0.4
		c0.2,0.2,0.4,0.6,0.4,0.9c0,0.3-0.1,0.7-0.4,0.9C31.7,15,31.3,15.1,31,15.1z M32,30.4h-2V18.2h2V30.4z"/>
	<path d="M44.2,29.8c-1,0.6-2.2,0.9-3.3,0.8c-1.6,0.1-3.1-0.5-4.2-1.7c-1.1-1.2-1.7-2.8-1.6-4.4c-0.1-1.8,0.5-3.5,1.7-4.8
		c1.2-1.2,2.9-1.9,4.6-1.8c1,0,1.9,0.2,2.8,0.6v2c-0.8-0.6-1.9-0.9-2.9-1c-1.2,0-2.3,0.5-3.1,1.3c-0.8,1-1.2,2.2-1.2,3.5
		c-0.1,1.2,0.3,2.4,1.1,3.4c0.8,0.8,1.9,1.3,3,1.2c1.1,0,2.1-0.4,3-1.1L44.2,29.8L44.2,29.8z"/>
	<path d="M53.5,20.1c-0.4-0.3-1-0.4-1.5-0.4c-0.9,0-1.6,0.5-2.1,1.2c-0.6,1-0.9,2.1-0.8,3.2v6.2h-2V18.2h2v2.5l0,0
		c0.2-0.8,0.7-1.5,1.3-2c0.6-0.5,1.3-0.7,2-0.7c0.4,0,0.8,0,1.2,0.2V20.1z"/>
	<path d="M60.4,30.6c-1.6,0.1-3.2-0.5-4.3-1.7c-1.1-1.2-1.7-2.9-1.6-4.5c-0.1-1.8,0.5-3.5,1.7-4.8c1.2-1.2,2.8-1.8,4.5-1.7
		c1.6-0.1,3.1,0.5,4.2,1.7c1.1,1.3,1.6,3,1.5,4.6c0.1,1.7-0.5,3.4-1.6,4.7C63.6,30.1,62,30.7,60.4,30.6z M60.5,19.5
		c-1.1-0.1-2.3,0.4-3,1.3c-0.8,1-1.2,2.3-1.1,3.5c-0.1,1.2,0.3,2.5,1.1,3.4c0.8,0.8,1.9,1.3,3,1.2c1.1,0.1,2.2-0.4,2.9-1.2
		c0.7-1,1.1-2.2,1-3.5c0.1-1.3-0.3-2.5-1-3.5C62.7,19.9,61.6,19.5,60.5,19.5z"/>
	<path d="M68.8,29.9v-2.1c1,0.8,2.2,1.2,3.5,1.2c1.7,0,2.6-0.6,2.6-1.7c0-0.3-0.1-0.6-0.2-0.8c-0.2-0.2-0.4-0.4-0.6-0.6
		c-0.3-0.2-0.6-0.4-0.9-0.5L72.1,25c-0.5-0.2-1-0.4-1.4-0.6c-0.4-0.2-0.7-0.4-1-0.7c-0.3-0.3-0.5-0.6-0.6-0.9
		c-0.1-0.4-0.2-0.8-0.2-1.2c0-0.5,0.1-1.1,0.4-1.5c0.3-0.4,0.6-0.8,1-1.1c0.5-0.3,1-0.5,1.5-0.7c0.6-0.2,1.1-0.2,1.7-0.2
		c1,0,1.9,0.2,2.8,0.5v2c-0.9-0.6-2-0.9-3.1-0.9c-0.3,0-0.7,0-1,0.1c-0.3,0.1-0.5,0.2-0.8,0.4c-0.2,0.1-0.4,0.3-0.5,0.5
		c-0.1,0.2-0.2,0.4-0.2,0.7c0,0.5,0.2,1.1,0.7,1.4c0.2,0.2,0.5,0.3,0.8,0.5c0.3,0.1,0.7,0.3,1.1,0.4s1,0.4,1.4,0.6
		c0.4,0.2,0.8,0.4,1.1,0.7c0.3,0.3,0.5,0.6,0.7,0.9c0.4,0.9,0.3,2-0.2,2.8c-0.3,0.4-0.6,0.8-1.1,1.1c-0.5,0.3-1,0.5-1.5,0.6
		c-0.6,0.1-1.2,0.2-1.8,0.2C70.9,30.7,69.8,30.4,68.8,29.9z"/>
	<path d="M85,30.6c-1.6,0.1-3.2-0.5-4.3-1.7c-1.1-1.2-1.7-2.9-1.6-4.5c-0.1-1.8,0.5-3.5,1.7-4.8c1.2-1.2,2.8-1.8,4.5-1.7
		c1.6-0.1,3.1,0.5,4.3,1.7c1.1,1.3,1.6,3,1.5,4.6c0.1,1.7-0.5,3.4-1.7,4.7C88.2,30.1,86.6,30.7,85,30.6z M85.1,19.5
		c-1.1-0.1-2.3,0.4-3,1.3c-0.8,1-1.2,2.3-1.1,3.5c-0.1,1.2,0.3,2.5,1.1,3.4c0.8,0.8,1.9,1.3,3,1.2c1.1,0,2.1-0.4,2.8-1.2
		c0.7-1,1.1-2.2,1-3.5c0.1-1.3-0.3-2.5-1-3.5C87.3,19.9,86.2,19.5,85.1,19.5L85.1,19.5z"/>
	<path d="M99.7,14c-0.4-0.2-0.8-0.3-1.3-0.3c-1.3,0-2,0.9-2,2.6v1.9h2.8v1.7h-2.9v10.6h-1.9V19.8h-2.1v-1.7h2.1v-2
		c-0.1-1.1,0.3-2.2,1.1-3c0.7-0.7,1.7-1.1,2.8-1.1c0.5,0,1,0.1,1.4,0.2V14z"/>
	<path d="M107.4,30.2c-0.6,0.3-1.2,0.4-1.8,0.4c-2.1,0-3.2-1.2-3.2-3.6v-7.2h-2.1v-1.7h2.1v-3l2-0.6v3.6h3.1v1.7h-3.1v6.9
		c-0.1,0.6,0.1,1.2,0.4,1.8c0.4,0.4,0.9,0.6,1.4,0.5c0.5,0,0.9-0.1,1.3-0.4L107.4,30.2z"/>
	<path d="M8.4,81.2V34.7h12.9c16.4,0,24.6,7.6,24.6,22.7c0,7.2-2.3,12.9-6.8,17.3s-10.7,6.5-18.3,6.5H8.4z M13.8,39.6v36.7h7
		c6.1,0,10.8-1.6,14.2-4.9s5.1-7.9,5.1-13.9c0-11.9-6.3-17.9-19-17.9H13.8z"/>
	<path d="M57,39.5c-0.9,0-1.8-0.3-2.4-1c-0.7-0.6-1-1.5-1-2.5c0-1.9,1.5-3.4,3.3-3.5c0,0,0.1,0,0.1,0c0.9,0,1.8,0.3,2.5,1
		c0.7,0.7,1,1.6,1,2.5c0,0.9-0.3,1.8-1,2.4C58.8,39.2,57.9,39.6,57,39.5z M59.6,81.2h-5.3V48h5.3L59.6,81.2z"/>
	<path d="M87.7,53.4c-1.2-0.8-2.6-1.2-4-1.1c-2.3,0-4.5,1.2-5.7,3.2c-1.5,2.1-2.3,5.1-2.3,8.8v16.9h-5.3V48h5.3v6.8h0.1
		c0.6-2.1,1.8-4,3.5-5.5c1.4-1.3,3.3-2,5.2-2c1.1,0,2.2,0.1,3.2,0.5V53.4z"/>
	<path d="M119.3,65.9H95.9c0.1,3.7,1.1,6.6,3,8.6c2.1,2.1,4.9,3.2,7.9,3c3.7,0,7.4-1.3,10.3-3.7v5c-2.9,2.1-6.8,3.2-11.6,3.2
		c-4.7,0-8.4-1.5-11.1-4.5s-4-7.3-4-12.7c0-5.2,1.5-9.4,4.4-12.6c2.7-3.2,6.7-5,10.9-4.9c4.3,0,7.7,1.4,10.1,4.2
		c2.4,2.8,3.6,6.7,3.6,11.7L119.3,65.9L119.3,65.9z M113.9,61.4c0.1-2.6-0.6-5.1-2.2-7.2c-1.5-1.7-3.8-2.7-6.1-2.6
		c-2.4,0-4.7,0.9-6.4,2.7c-1.8,1.9-3,4.4-3.3,7L113.9,61.4z"/>
	<path d="M150,79.7c-2.7,1.6-5.8,2.4-9,2.3c-4.3,0.2-8.5-1.5-11.5-4.6c-2.9-3.1-4.4-7.1-4.4-12c0-5.5,1.6-9.9,4.7-13.2
		c3.1-3.3,7.3-5,12.6-5c2.7-0.1,5.3,0.5,7.7,1.6v5.5c-2.3-1.7-5.1-2.6-7.9-2.6c-3.2-0.1-6.3,1.2-8.4,3.7c-2.3,2.7-3.4,6.1-3.3,9.6
		c0,3.9,1,7,3.1,9.2c2.1,2.3,5.1,3.5,8.2,3.4c2.9,0,5.8-1,8.1-2.9V79.7z"/>
	<path d="M173.5,80.9c-1.6,0.7-3.3,1.1-5,1c-5.8,0-8.7-3.2-8.7-9.7V52.5h-5.7V48h5.7v-8.1l5.3-1.7V48h8.4v4.5h-8.4v18.7
		c0,2.2,0.4,3.8,1.1,4.8c1,1,2.4,1.6,3.8,1.4c1.2,0,2.5-0.4,3.5-1.1L173.5,80.9z"/>
	<path d="M213.5,81.2h-6.7l-10.7-17.8c-0.4-0.7-0.8-1.5-1.1-2.3h-0.1c-0.2,0.5-0.6,1.3-1.1,2.3l-11,17.8h-6.7l15.6-23.4l-14.4-23.1
		h6.7l9.5,16.3c0.6,1.1,1.2,2.1,1.6,3.2h0.1c0.5-1.2,1.2-2.3,1.8-3.4l9.9-16.2h6.3l-14.6,23.1L213.5,81.2z"/>
	<path d="M111.8,21.2c-1.8,0-3.3-1.5-3.3-3.3c0-0.9,0.3-1.7,0.9-2.3c1.3-1.3,3.3-1.3,4.6,0c1.3,1.3,1.3,3.3,0,4.6
		C113.5,20.8,112.6,21.2,111.8,21.2z M111.8,15c-1.6,0-2.9,1.3-2.9,2.9c0,0.8,0.3,1.5,0.8,2c1.1,1.1,2.9,1.1,4.1,0
		c1.1-1.1,1.1-2.9,0-4.1l0,0C113.3,15.3,112.5,15,111.8,15L111.8,15z M113.4,20h-0.7l-0.5-1c-0.2-0.5-0.5-0.8-0.7-0.8h-0.4V20h-0.6
		v-4.2h1.2c0.4,0,0.8,0.1,1.1,0.3c0.3,0.2,0.4,0.5,0.4,0.8c0,0.3-0.1,0.5-0.3,0.7c-0.2,0.2-0.5,0.4-0.8,0.4l0,0
		c0.2,0,0.5,0.3,0.7,0.8L113.4,20z M111.1,16.4v1.4h0.6c0.6,0,0.8-0.2,0.8-0.7c0-0.2-0.1-0.4-0.2-0.5c-0.2-0.1-0.5-0.2-0.7-0.2
		L111.1,16.4z"/>
	<path d="M217,41.6c-1.8,0-3.2-1.4-3.3-3.2c0,0,0,0,0,0c-0.1-1.8,1.3-3.3,3.1-3.4s3.3,1.3,3.4,3.1c0,0.1,0,0.2,0,0.4
		C220.3,40.1,218.8,41.5,217,41.6C217,41.6,217,41.6,217,41.6z M217,35.4c-1.6,0-2.9,1.3-2.9,2.9c0,0,0,0,0,0c0,0.8,0.3,1.5,0.8,2
		c1.1,1.1,2.9,1.1,4.1,0c1.1-1.1,1.1-2.9,0-4.1C218.5,35.7,217.7,35.4,217,35.4L217,35.4z M218.6,40.3h-0.7l-0.4-1
		c-0.2-0.5-0.5-0.7-0.7-0.7h-0.4v1.7h-0.6v-4.2h1.2c0.4,0,0.8,0.1,1.1,0.3c0.3,0.2,0.4,0.5,0.4,0.8c0,0.3-0.1,0.5-0.3,0.7
		c-0.2,0.2-0.5,0.4-0.8,0.4l0,0c0.2,0,0.5,0.3,0.7,0.8L218.6,40.3z M216.3,36.7v1.4h0.6c0.6,0,0.9-0.2,0.9-0.7
		c0-0.2-0.1-0.4-0.2-0.5c-0.2-0.1-0.5-0.2-0.7-0.2L216.3,36.7z"/>
</g>
</svg>
