<?xml version="1.0" encoding="utf-8"?>
<!-- Generator: Adobe Illustrator 24.0.1, SVG Export Plug-In . SVG Version: 6.00 Build 0)  -->
<svg version="1.1" id="Layer_1" xmlns="http://www.w3.org/2000/svg" xmlns:xlink="http://www.w3.org/1999/xlink" x="0px" y="0px"
	 viewBox="0 0 100 100" enable-background="new 0 0 100 100" xml:space="preserve">
<title>Figma</title>
<g id="Layer_24">
	<path id="path0_fill" fill="#0ACF83" stroke="#000000" stroke-width="2" stroke-miterlimit="10" d="M36.3,100
		c9.1,0,16.6-7.4,16.6-16.6V66.9H36.3c-9.1-0.2-16.8,7-17,16.1s7,16.8,16.1,17C35.7,100,36,100,36.3,100z"/>
	<path id="path1_fill" fill="#A259FF" stroke="#000000" stroke-width="2" stroke-miterlimit="10" d="M19.8,50.3
		c0-9.1,7.4-16.6,16.6-16.6h16.6v33.1H36.3C27.2,66.9,19.8,59.5,19.8,50.3z"/>
	<path id="path1_fill-2" fill="#F24E1E" stroke="#000000" stroke-width="2" stroke-miterlimit="10" d="M19.8,17.2
		c0-9.1,7.4-16.6,16.6-16.6h16.6v33.1H36.3C27.2,33.8,19.8,26.3,19.8,17.2z"/>
	<path id="path2_fill" fill="#FF7262" stroke="#000000" stroke-width="2" stroke-miterlimit="10" d="M52.9,0.6h16.6
		c9.1,0.2,16.4,7.9,16.1,17c-0.2,8.8-7.3,15.9-16.1,16.1H52.9V0.6z"/>
	<path id="path3_fill" fill="#1ABCFE" stroke="#000000" stroke-width="2" stroke-miterlimit="10" d="M86,50.3
		c0,9.1-7.4,16.6-16.6,16.6c-9.1,0-16.6-7.4-16.6-16.6c0-9.1,7.4-16.6,16.6-16.6c0,0,0,0,0,0C78.6,33.8,86,41.2,86,50.3z"/>
</g>
</svg>
