<?xml version="1.0" encoding="utf-8"?>
<!-- Generator: Adobe Illustrator 24.0.1, SVG Export Plug-In . SVG Version: 6.00 Build 0)  -->
<svg version="1.1" id="Layer_1" xmlns="http://www.w3.org/2000/svg" xmlns:xlink="http://www.w3.org/1999/xlink" x="0px" y="0px"
	 viewBox="0 0 100 100" enable-background="new 0 0 100 100" xml:space="preserve">
<title>Firebase</title>
<g id="Layer_10">
	<path fill="#FFC24A" stroke="#000000" stroke-miterlimit="10" d="M15.6,78.4l0.6-0.8l26.8-51l0.1-0.5L31.2,3.8
		c-0.6-1.1-1.9-1.5-3-0.9c-0.6,0.3-1,0.9-1.1,1.6L15.6,78.4z"/>
	<path id="path-1" fill-rule="evenodd" clip-rule="evenodd" fill="#FFA712" d="M15.9,77.8l0.4-0.8l26.6-50.4L31.1,4.2
		c-0.5-1-1.7-1.4-2.7-0.9c-0.6,0.3-1.1,0.9-1.1,1.6L15.9,77.8z"/>
	<path id="path-1-2" fill="#F29611" d="M15.9,77.8l0.4-0.8l26.6-50.4L31.1,4.2c-0.5-1-1.7-1.4-2.7-0.9c-0.6,0.3-1.1,0.9-1.1,1.6
		L15.9,77.8z"/>
	<path fill="#F4BD62" d="M51.7,42.9l8.8-9L51.7,17c-0.6-1.1-2-1.5-3.1-0.9c-0.4,0.2-0.7,0.5-0.9,0.9L43,26v0.8L51.7,42.9z"/>
	<path id="path-3" fill-rule="evenodd" clip-rule="evenodd" fill="#FFA50E" d="M51.6,42.5l8.6-8.8l-8.6-16.3c-0.4-1-1.6-1.5-2.6-1.1
		c-0.4,0.2-0.8,0.5-1,0.9l-4.7,9.1l-0.1,0.5L51.6,42.5z"/>
	<path id="path-3-2" fill="#EFAC14" stroke="#000000" stroke-width="0.5" stroke-miterlimit="10" d="M51.6,42.5l8.6-8.8l-8.6-16.3
		c-0.4-1-1.6-1.5-2.6-1.1c-0.4,0.2-0.8,0.5-1,0.9l-4.7,9.1l-0.1,0.5L51.6,42.5z"/>
	<polygon fill="#F6820C" stroke="#000000" stroke-width="0.25" stroke-miterlimit="10" points="15.6,78.4 15.9,78.1 16.8,77.8 
		51.2,43.5 51.6,42.3 43,26 	"/>
	<path fill="#FDE068" d="M52.8,95.7l31.1-17.3L75,23.6c-0.2-1.2-1.3-1.9-2.4-1.8c-0.4,0.1-0.9,0.3-1.2,0.6l-55.8,56l30.9,17.3
		C48.5,96.8,50.9,96.8,52.8,95.7"/>
	<path fill="#FCCA3F" stroke="#000000" stroke-miterlimit="10" d="M83.7,78.2l-8.8-54.3c0-1-0.9-1.8-2-1.8c-0.5,0-0.9,0.2-1.3,0.6
		L15.9,78.3l30.6,17.1c1.9,1.1,4.3,1.1,6.3,0L83.7,78.2z"/>
	<path fill="#EEAB37" stroke="#000000" stroke-miterlimit="10" d="M52.8,95.2c-2,1.1-4.3,1.1-6.3,0l-30.7-17l-0.3,0.3l30.9,17.2
		c2,1.1,4.3,1.1,6.3,0l31.1-17.3l-0.1-0.5L52.8,95.2z"/>
</g>
</svg>
