<?xml version="1.0" encoding="utf-8"?>
<!-- Generator: Adobe Illustrator 24.0.1, SVG Export Plug-In . SVG Version: 6.00 Build 0)  -->
<svg version="1.1" id="Layer_1" xmlns="http://www.w3.org/2000/svg" xmlns:xlink="http://www.w3.org/1999/xlink" x="0px" y="0px"
	 viewBox="0 0 100 100" enable-background="new 0 0 100 100" xml:space="preserve">
<title>GCP</title>
<g id="Layer_11">
	<path fill="#EA4335" stroke="#000000" stroke-width="2" stroke-miterlimit="10" d="M64.3,33.1l7.2-7.2l0.5-3
		C58.8,11,38,12.3,26.1,25.7c-3.3,3.8-5.7,8.3-7,13.1l2.6-0.4l14.4-2.4l1.1-1.1c6.4-7.1,17.2-8,24.6-2L64.3,33.1z"/>
	<path fill="#4285F4" stroke="#000000" stroke-width="2" stroke-miterlimit="10" d="M81.7,38.6c-1.7-6.1-5-11.6-9.8-15.8L61.8,33
		c4.3,3.5,6.7,8.7,6.6,14.3V49c4.9-0.2,9.1,3.7,9.2,8.6c0.2,4.9-3.7,9.1-8.6,9.2c-0.2,0-0.4,0-0.6,0h-18l-1.8,1.9v10.8l1.8,1.7h18
		C81.3,81.4,91.9,71.1,92,58.2C92.1,50.4,88.2,43,81.7,38.6"/>
	<path fill="#34A853" stroke="#000000" stroke-width="2" stroke-miterlimit="10" d="M32.4,81.3h18V66.9h-18c-1.3,0-2.5-0.3-3.7-0.8
		l-2.5,0.8l-7.3,7.2l-0.6,2.4C22.4,79.6,27.3,81.3,32.4,81.3"/>
	<path fill="#FBBC05" stroke="#000000" stroke-width="2" stroke-miterlimit="10" d="M32.4,34.6C19.5,34.7,9.1,45.2,9.2,58.1
		c0,7.2,3.4,14,9.1,18.4l10.4-10.4c-4.5-2-6.6-7.4-4.5-11.9s7.4-6.6,11.9-4.5c2,0.9,3.6,2.5,4.5,4.5l10.4-10.4
		C46.6,38,39.7,34.6,32.4,34.6"/>
</g>
</svg>
