<?xml version="1.0" encoding="utf-8"?>
<!-- Generator: Adobe Illustrator 24.0.1, SVG Export Plug-In . SVG Version: 6.00 Build 0)  -->
<svg version="1.1" id="Layer_1" xmlns="http://www.w3.org/2000/svg" xmlns:xlink="http://www.w3.org/1999/xlink" x="0px" y="0px"
	 viewBox="0 0 100 100" enable-background="new 0 0 100 100" xml:space="preserve">
<title>Intelij Idea</title>
<g id="Layer_21">
	
		<linearGradient id="SVGID_1_" gradientUnits="userSpaceOnUse" x1="8.69" y1="960.475" x2="47.81" y2="960.475" gradientTransform="matrix(1 0 0 1 0 -906)">
		<stop  offset="0.26" style="stop-color:#F97A12"/>
		<stop  offset="0.46" style="stop-color:#B07B58"/>
		<stop  offset="0.72" style="stop-color:#577BAE"/>
		<stop  offset="0.91" style="stop-color:#1E7CE5"/>
		<stop  offset="1" style="stop-color:#087CFA"/>
	</linearGradient>
	<polygon fill="url(#SVGID_1_)" stroke="#000000" stroke-width="2" stroke-miterlimit="10" points="29,71.9 8.7,55.8 18.8,37 
		47.8,48.3 	"/>
	
		<linearGradient id="SVGID_2_" gradientUnits="userSpaceOnUse" x1="38.7316" y1="942.1771" x2="103.3316" y2="977.9171" gradientTransform="matrix(1 0 0 1 0 -906)">
		<stop  offset="0" style="stop-color:#F97A12"/>
		<stop  offset="7.000000e-02" style="stop-color:#CB7A3E"/>
		<stop  offset="0.15" style="stop-color:#9E7B6A"/>
		<stop  offset="0.24" style="stop-color:#757B91"/>
		<stop  offset="0.33" style="stop-color:#537BB1"/>
		<stop  offset="0.43" style="stop-color:#387CCC"/>
		<stop  offset="0.54" style="stop-color:#237CE0"/>
		<stop  offset="0.66" style="stop-color:#147CEF"/>
		<stop  offset="0.79" style="stop-color:#0B7CF7"/>
		<stop  offset="1" style="stop-color:#087CFA"/>
	</linearGradient>
	<polygon fill="url(#SVGID_2_)" stroke="#000000" stroke-width="2" stroke-miterlimit="10" points="92,28.7 90.4,77.5 58,90.5 
		38.5,77.9 67.1,48.3 54.6,21 65.8,7.5 	"/>
	
		<linearGradient id="SVGID_3_" gradientUnits="userSpaceOnUse" x1="83.8599" y1="963.86" x2="65.87" y2="910.12" gradientTransform="matrix(1 0 0 1 0 -906)">
		<stop  offset="0" style="stop-color:#FE315D"/>
		<stop  offset="8.000000e-02" style="stop-color:#CB417E"/>
		<stop  offset="0.16" style="stop-color:#9E4E9B"/>
		<stop  offset="0.25" style="stop-color:#755BB4"/>
		<stop  offset="0.34" style="stop-color:#5365CA"/>
		<stop  offset="0.44" style="stop-color:#386DDB"/>
		<stop  offset="0.54" style="stop-color:#2374E9"/>
		<stop  offset="0.66" style="stop-color:#1478F3"/>
		<stop  offset="0.79" style="stop-color:#0B7BF8"/>
		<stop  offset="1" style="stop-color:#087CFA"/>
	</linearGradient>
	<polygon fill="url(#SVGID_3_)" stroke="#000000" stroke-width="2" stroke-miterlimit="10" points="92,28.7 66.4,59 54.6,21 
		65.8,7.5 	"/>
	
		<linearGradient id="SVGID_4_" gradientUnits="userSpaceOnUse" x1="20.5879" y1="932.0513" x2="74.5379" y2="1021.2713" gradientTransform="matrix(1 0 0 1 0 -906)">
		<stop  offset="0" style="stop-color:#FE315D"/>
		<stop  offset="4.000000e-02" style="stop-color:#F63462"/>
		<stop  offset="0.1" style="stop-color:#DF3A71"/>
		<stop  offset="0.17" style="stop-color:#C24383"/>
		<stop  offset="0.29" style="stop-color:#AD4A91"/>
		<stop  offset="0.55" style="stop-color:#755BB4"/>
		<stop  offset="0.92" style="stop-color:#1D76ED"/>
		<stop  offset="1" style="stop-color:#087CFA"/>
	</linearGradient>
	<polygon fill="url(#SVGID_4_)" stroke="#000000" stroke-width="2" stroke-miterlimit="10" points="48.3,76.2 14.5,88.4 19.9,69.4 
		27,46 7.7,39.5 19.9,6.2 46.4,9.4 72.4,39.2 	"/>
	<rect x="24.2" y="22.5" stroke="#000000" stroke-width="2" stroke-miterlimit="10" width="52" height="52"/>
	<rect x="29" y="64.7" fill="#FFFFFF" stroke="#000000" stroke-width="2" stroke-miterlimit="10" width="19.5" height="3.3"/>
	<polygon fill="#FFFFFF" stroke="#000000" stroke-width="2" stroke-miterlimit="10" points="43.1,33.2 43.1,29.2 32.3,29.2 
		32.3,33.2 35.4,33.2 35.4,46.8 32.3,46.8 32.3,50.7 43.1,50.7 43.1,46.8 40.1,46.8 40.1,33.2 	"/>
	<path fill="#FFFFFF" stroke="#000000" stroke-width="2" stroke-miterlimit="10" d="M53.5,51.1c-1.5,0-2.9-0.3-4.2-1
		c-1.1-0.6-2-1.4-2.8-2.3l3-3.4c0.5,0.6,1.1,1.2,1.8,1.6c0.6,0.4,1.3,0.6,2,0.6c0.8,0,1.6-0.3,2.2-0.8C56,45,56.3,44,56.2,43V29.2
		h4.8v14.1c0,1.1-0.1,2.3-0.5,3.4c-0.3,0.9-0.9,1.7-1.6,2.4c-0.7,0.7-1.5,1.2-2.4,1.4C55.6,50.9,54.5,51.1,53.5,51.1"/>
</g>
</svg>
