<?xml version="1.0" encoding="utf-8"?>
<!-- Generator: Adobe Illustrator 24.0.1, SVG Export Plug-In . SVG Version: 6.00 Build 0)  -->
<svg version="1.1" id="Layer_1" xmlns="http://www.w3.org/2000/svg" xmlns:xlink="http://www.w3.org/1999/xlink" x="0px" y="0px"
	 viewBox="0 0 100 100" enable-background="new 0 0 100 100" xml:space="preserve">
<title>JavaScript</title>
<g id="Layer_8">
	<path fill="#F7DF1E" stroke="#000000" stroke-width="2" stroke-miterlimit="10" d="M6.3,6.2H94V94H6.3V6.2z"/>
	<path stroke="#000000" stroke-width="2" stroke-miterlimit="10" d="M29.3,79.5l6.7-4.1c1.3,2.3,2.5,4.3,5.3,4.3s4.4-1.1,4.4-5.2
		v-28H54v28.1c0,8.5-5,12.4-12.3,12.4C35.1,87.1,31.3,83.7,29.3,79.5"/>
	<path stroke="#000000" stroke-width="2" stroke-miterlimit="10" d="M58.5,78.7l6.7-3.9c1.8,2.9,4.1,5,8.1,5c3.4,0,5.6-1.7,5.6-4.1
		c0-2.8-2.2-3.8-6-5.5l-2.1-0.9c-6-2.5-9.9-5.7-9.9-12.4C61,50.7,65.7,46,73,46c5.2,0,9,1.8,11.7,6.6l-6.4,4.1
		c-1.4-2.5-2.9-3.5-5.3-3.5s-4,1.5-4,3.5c0,2.5,1.5,3.5,5.1,5l2.1,0.9c7,3,11,6.1,11,13c0,7.4-5.8,11.5-13.7,11.5
		C65.8,87.1,60.9,83.4,58.5,78.7"/>
</g>
</svg>
