<?xml version="1.0" encoding="utf-8"?>
<!-- Generator: Adobe Illustrator 24.0.1, SVG Export Plug-In . SVG Version: 6.00 Build 0)  -->
<svg version="1.1" id="Layer_1" xmlns="http://www.w3.org/2000/svg" xmlns:xlink="http://www.w3.org/1999/xlink" x="0px" y="0px"
	 viewBox="0 0 231 100" enable-background="new 0 0 231 100" xml:space="preserve">
<title>Nodejs</title>
<g id="Layer_27">
	<path fill-rule="evenodd" clip-rule="evenodd" fill="#333333" stroke="#000000" stroke-width="2" stroke-miterlimit="10" d="
		M36.3,47.5c0-0.6-0.3-1.2-0.9-1.5l-14.7-8.5c-0.2-0.1-0.5-0.2-0.8-0.2h-0.2c-0.3,0-0.6,0.1-0.8,0.2L4.2,45.9
		c-0.6,0.3-0.9,0.9-0.9,1.5v22.8c0,0.3,0.2,0.6,0.4,0.8c0.3,0.2,0.6,0.2,0.9,0l8.8-5c0.5-0.3,0.9-0.9,0.9-1.5V53.8
		c0-0.6,0.3-1.2,0.9-1.5l3.7-2.2c0.3-0.2,0.6-0.2,0.9-0.2c0.3,0,0.6,0.1,0.9,0.2l3.7,2.2c0.6,0.3,0.9,0.9,0.9,1.5v10.7
		c0,0.6,0.3,1.2,0.9,1.5l8.7,5c0.3,0.2,0.6,0.2,0.9,0c0.3-0.2,0.4-0.4,0.4-0.8L36.3,47.5z"/>
	<path fill-rule="evenodd" clip-rule="evenodd" fill="#333333" stroke="#000000" stroke-width="2" stroke-miterlimit="10" d="
		M114.9,16.1c-0.4-0.2-1-0.1-1.2,0.3c-0.1,0.1-0.1,0.3-0.1,0.4v22.6c0,0.2-0.1,0.4-0.3,0.5c-0.2,0.1-0.4,0.1-0.6,0l-3.7-2.1
		c-0.6-0.3-1.2-0.3-1.8,0l-14.8,8.5c-0.5,0.3-0.9,0.9-0.9,1.5V65c0,0.6,0.3,1.2,0.9,1.5l14.7,8.5c0.6,0.3,1.2,0.3,1.8,0l14.7-8.5
		c0.5-0.3,0.9-0.9,0.9-1.5V22.6c0-0.6-0.3-1.2-0.9-1.6L114.9,16.1z M113.6,59.4c0,0.2-0.1,0.3-0.2,0.4l-5,2.9
		c-0.1,0.1-0.3,0.1-0.4,0l-5-2.9c-0.1-0.1-0.2-0.2-0.2-0.4v-5.8c0-0.2,0.1-0.3,0.2-0.4l5.1-2.9c0.1-0.1,0.3-0.1,0.4,0l5,2.9
		c0.1,0.1,0.2,0.2,0.2,0.4L113.6,59.4z"/>
	<path fill-rule="evenodd" clip-rule="evenodd" fill="#333333" stroke="#000000" stroke-width="2" stroke-miterlimit="10" d="
		M167.6,53.4c0.5-0.3,0.9-0.9,0.9-1.5v-4.1c0-0.6-0.3-1.2-0.9-1.5L153,37.7c-0.6-0.3-1.2-0.3-1.8,0l-14.7,8.5
		c-0.5,0.3-0.9,0.9-0.9,1.5v17c0,0.6,0.3,1.2,0.9,1.6l14.6,8.3c0.5,0.3,1.2,0.3,1.7,0l8.9-4.9c0.4-0.2,0.6-0.8,0.3-1.2
		c-0.1-0.1-0.2-0.2-0.3-0.3l-14.8-8.5c-0.3-0.2-0.5-0.5-0.4-0.8v-5.3c0-0.3,0.2-0.6,0.4-0.8l4.6-2.7c0.3-0.2,0.6-0.2,0.9,0l4.6,2.7
		c0.3,0.2,0.5,0.5,0.4,0.8v4.2c0,0.5,0.4,0.9,0.9,0.9c0.2,0,0.3,0,0.4-0.1L167.6,53.4z"/>
	<path fill-rule="evenodd" clip-rule="evenodd" fill="#80BD01" stroke="#000000" stroke-width="2" stroke-miterlimit="10" d="
		M63.1,37.6c0.6-0.3,1.2-0.3,1.8,0l14.7,8.5c0.6,0.3,0.9,0.9,0.9,1.5v17c0,0.6-0.3,1.2-0.9,1.5l-14.7,8.5c-0.6,0.3-1.2,0.3-1.8,0
		l-14.7-8.5c-0.6-0.3-0.9-0.9-0.9-1.5v-17c0-0.6,0.3-1.2,0.9-1.5L63.1,37.6z"/>
	<path fill="#80BD01" stroke="#000000" stroke-width="2" stroke-miterlimit="10" d="M205.4,74.9c-0.7,0-1.3-0.2-1.9-0.5l-5.9-3.4
		c-0.9-0.5-0.4-0.7-0.2-0.8c0.9-0.3,1.8-0.7,2.7-1.2c0.1-0.1,0.3-0.1,0.4,0l4.5,2.7c0.2,0.1,0.4,0.1,0.6,0l17.7-10.2
		c0.2-0.1,0.3-0.3,0.3-0.5V40.6c0-0.2-0.1-0.4-0.3-0.5l-17.7-10.2c-0.2-0.1-0.4-0.1-0.6,0l-17.7,10.2c-0.2,0.1-0.3,0.3-0.3,0.5V61
		c0,0.2,0.1,0.4,0.3,0.5l4.9,2.8c2.6,1.3,4.2-0.2,4.2-1.8V42.3c0-0.3,0.2-0.5,0.5-0.5h2.3c0.3,0,0.5,0.2,0.5,0.5v20.2
		c0,3.5-1.9,5.5-5.2,5.5c-1.4,0-2.9-0.4-4.1-1.1l-4.6-2.7c-1.1-0.7-1.8-1.9-1.8-3.2V40.6c0-1.3,0.7-2.6,1.9-3.2l17.7-10.2
		c1.2-0.6,2.6-0.6,3.7,0L225,37.4c1.1,0.7,1.9,1.9,1.9,3.2V61c0,1.3-0.7,2.6-1.9,3.2l-17.7,10.2C206.7,74.8,206,74.9,205.4,74.9z"/>
	<path fill="#80BD01" stroke="#000000" stroke-width="2" stroke-miterlimit="10" d="M210.8,60.9c-7.7,0-9.4-3.5-9.4-6.5
		c0-0.3,0.2-0.5,0.5-0.5h2.3c0.3,0,0.5,0.2,0.5,0.4c0.4,2.3,1.4,3.5,6.1,3.5c3.7,0,5.3-0.8,5.3-2.8c0-1.1-0.4-2-6.2-2.5
		c-4.8-0.5-7.8-1.5-7.8-5.4c0-3.6,3-5.7,8.1-5.7c5.7,0,8.5,2,8.8,6.2c0,0.1,0,0.3-0.1,0.4c-0.1,0.1-0.2,0.2-0.4,0.2h-2.3
		c-0.2,0-0.4-0.2-0.5-0.4c-0.6-2.5-1.9-3.2-5.5-3.2c-4.1,0-4.5,1.4-4.5,2.5c0,1.3,0.6,1.7,6.1,2.4s8,1.7,8,5.6
		S216.4,60.9,210.8,60.9z"/>
	<path fill-rule="evenodd" clip-rule="evenodd" fill="#80BD01" stroke="#000000" stroke-width="2" stroke-miterlimit="10" d="
		M151.9,52.6c0.1-0.1,0.2-0.1,0.3,0l2.8,1.6c0.1,0.1,0.2,0.2,0.2,0.3v3.3c0,0.1-0.1,0.2-0.2,0.3l-2.8,1.6c-0.1,0.1-0.2,0.1-0.3,0
		l-2.8-1.6c-0.1-0.1-0.2-0.2-0.2-0.3v-3.3c0-0.1,0.1-0.2,0.2-0.3L151.9,52.6z"/>
</g>
</svg>
