<?xml version="1.0" encoding="utf-8"?>
<!-- Generator: Adobe Illustrator 24.0.1, SVG Export Plug-In . SVG Version: 6.00 Build 0)  -->
<svg version="1.1" id="Layer_1" xmlns="http://www.w3.org/2000/svg" xmlns:xlink="http://www.w3.org/1999/xlink" x="0px" y="0px"
	 viewBox="0 0 100 100" enable-background="new 0 0 100 100" xml:space="preserve">
<title>Nvidia Cuda</title>
<path fill="#8DC53F" d="M88,9.6c0,0.1,0,0.3,0,0.4v48.1c0,0.2,0,0.3,0,0.5c0.2,0.2,0.2,0.6,0,0.8c-0.1,0.1-0.3,0.1-0.5,0.1
	c-0.7-0.1-1.4-0.1-2.1-0.1H42.2c-0.6,0-1.1,0-1.7,0.1c-0.1,0-0.2,0-0.3-0.1c-0.1-0.2-0.1-0.4-0.1-0.6c0-1.3,0-2.6,0-3.9
	c0-0.4,0-0.9,0-1.3c0-0.1,0-0.1,0.1-0.2c0.2-0.1,0.4-0.2,0.6-0.1c1.9,0.2,3.8,0.2,5.7,0c4.1-0.4,8.2-1.1,12.3-2.1
	c4.7-1.2,9.4-2.8,13.9-4.7c2.9-1.2,5.6-2.8,8.2-4.6c0.3-0.2,0.5-0.4,0.8-0.6s0.3-0.4,0-0.6c-0.9-0.6-1.9-1.2-2.8-1.7
	c-1.6-0.9-3.2-1.7-4.8-2.7c-0.3-0.2-0.7-0.2-0.9,0.1c-3.1,2.7-6.4,5.2-9.9,7.4c-4,2.6-8.5,4.4-13.2,5.5c-2.8,0.5-5.7,0.8-8.6,0.6
	c-0.2,0-0.5-0.1-0.7-0.1c-0.2-0.1-0.5-0.1-0.6-0.4c-0.1-1.2-0.1-2.3,0-3.5c0.2-0.1,0.1-0.3,0.2-0.4c0.2-0.1,0.4-0.1,0.6,0
	c0.8,0.2,1.7,0.1,2.5,0.2c0.2,0,0.4,0,0.5,0c4.1-0.2,8.2-1.5,11.7-3.6c2.9-1.6,5.6-3.6,8.1-5.8c1.2-1,2.3-2.1,3.4-3.1
	c0.9-0.8,1.7-1.7,2.5-2.6c0.4-0.4,0.4-0.5,0-1c-1.1-1.3-2.3-2.5-3.6-3.6c-1.7-1.6-3.5-3-5.4-4.2c-3.6-2.4-7.6-4.1-11.7-5.1
	c-2.4-0.5-4.9-0.7-7.4-0.7c-0.4,0.1-0.9,0-1.3-0.1c0,0-0.1-0.1-0.1-0.2c-0.1-1.1,0-2.3,0-3.5c0-0.9,0-1.8,0.1-2.7
	C40.3,8.9,40.4,8.8,41,9h0.5h45.4h0.5c0.2-0.2,0.4-0.1,0.6,0C88.2,9.1,88.1,9.4,88,9.6z"/>
<path d="M40.5,60.5c-0.3,0-0.7-0.1-0.9-0.3L39.4,60c-0.2-0.3-0.3-0.7-0.3-1.1v-0.8c0-1.1,0-2.1,0-3.2c0-0.2,0-0.3,0-0.4
	c0-0.2,0-0.5,0-0.8v-0.1v-0.1c0-0.2,0.1-0.4,0.2-0.5l0.2-0.2c0.4-0.3,0.9-0.5,1.3-0.4c1.9,0.2,3.7,0.2,5.6,0
	c4.1-0.4,8.1-1.1,12.1-2.1c4.7-1.2,9.3-2.7,13.7-4.7c2.8-1.2,5.5-2.7,8-4.5h0.1c-0.6-0.4-1.3-0.8-2-1.2l-0.8-0.5
	c-1.3-0.7-2.6-1.4-3.9-2.2c-3.1,2.7-6.4,5.2-9.9,7.4c-4.1,2.7-8.7,4.6-13.5,5.6c-2.9,0.6-5.9,0.8-8.8,0.7c-0.3,0-0.7-0.1-1-0.2
	l-0.2-0.1c-0.6-0.1-1-0.5-1.1-1.1v-0.2c-0.1-1.2-0.1-2.4,0-3.6l0.1-0.6l0.2-0.1c0.1-0.1,0.2-0.3,0.3-0.4l0.2-0.1
	c0.4-0.2,0.9-0.3,1.3-0.2c0.4,0.1,0.8,0.1,1.2,0.1c0.4,0,0.8,0,1.2,0.1c0.1,0,0.1,0,0.2,0H44c3.5,0,7.1-1.1,11.2-3.4
	c2.8-1.6,5.5-3.5,7.9-5.7c1.1-0.9,2.2-1.9,3.3-3.1c0.7-0.7,1.5-1.5,2.3-2.4c-1-1.2-2.2-2.3-3.3-3.4c-1.6-1.5-3.4-2.9-5.2-4.1
	c-3.5-2.3-7.3-4-11.4-4.9c-2.4-0.5-4.8-0.7-7.2-0.6h-0.2c-0.5,0.1-1.1,0-1.6-0.3l-0.2-0.1l-0.1-0.2c-0.1-0.1-0.2-0.3-0.2-0.5v-0.2
	c-0.1-0.9-0.1-1.8,0-2.7v-0.8c0-0.2,0-0.5,0-0.7c0-0.7,0-1.4,0.1-2.1c0-0.5,0.3-0.9,0.6-1.2C40.3,8,40.7,7.9,41.1,8h46
	c0.7-0.3,1.5,0,1.8,0.7C89.1,9,89.1,9.4,89,9.7l0,0c0,0.1,0,0.2,0,0.3v48.1c0,0.1,0,0.1,0,0.2c0.2,0.6,0.2,1.2-0.2,1.7l-0.1,0.1
	l-0.1,0.1c-0.4,0.2-0.8,0.3-1.2,0.2c-0.4-0.1-0.9-0.1-1.3,0H42.1c-0.4,0-0.9,0-1.3,0.1h-0.2L40.5,60.5z M41.2,54.4c0,0,0,0.1,0,0.1
	c0,0.1,0,0.3,0,0.4c0,1.1,0,2.1,0,3.2v0.3c0.3,0,0.6,0,0.9,0H86c0.3,0,0.7,0,1.1,0c0-0.1,0-0.2,0-0.3V10H41.1c0,0.5,0,0.9,0,1.4
	c0,0.3,0,0.5,0,0.8V13c0,0.7,0,1.3,0,1.9h0.1h0.3c2.6-0.1,5.1,0.1,7.7,0.7c4.3,1,8.4,2.7,12.1,5.2c2,1.3,3.8,2.7,5.5,4.3
	c1.3,1.2,2.5,2.4,3.7,3.7c0.6,0.5,0.7,1.5,0.2,2.1c-0.1,0.1-0.1,0.1-0.2,0.2c-0.9,1-1.7,1.9-2.5,2.7C66.7,35,65.6,36,64.4,37
	c-2.5,2.2-5.3,4.2-8.3,5.9c-4.4,2.4-8.2,3.6-12,3.7c-0.2,0-0.5,0-0.8,0c-0.3,0-0.7-0.1-1-0.1s-0.8,0-1.2-0.1c0,0.8,0,1.7,0,2.4l0,0
	c0.1,0,0.3,0.1,0.4,0.1c2.8,0.1,5.6-0.1,8.4-0.6c4.6-1,8.9-2.8,12.8-5.3c3.4-2.2,6.7-4.6,9.7-7.3c0.6-0.6,1.4-0.6,2.1-0.2
	c1.3,0.8,2.6,1.5,3.9,2.2l0.8,0.4c1,0.5,2,1.2,2.9,1.8c0.4,0.3,0.6,0.7,0.6,1.1c0,0.5-0.3,0.9-0.7,1.1c-0.1,0.1-0.3,0.2-0.4,0.3
	c-0.1,0.1-0.2,0.2-0.4,0.3c-2.6,1.9-5.4,3.4-8.4,4.7c-4.5,2-9.2,3.6-14,4.8c-4.1,1.1-8.2,1.8-12.4,2.2C44.8,54.5,43,54.6,41.2,54.4z
	"/>
<path fill="#8DC53F" d="M63.7,82.9v-4.1c-0.1-0.2-0.1-0.3,0-0.5c0-0.2,0-0.4-0.1-0.5c0-0.1,0-0.3-0.1-0.4c0.1-0.2,0-0.5-0.2-0.7
	l-0.2-0.4c0-0.1,0-0.2-0.1-0.2c-0.1,0-0.1-0.1,0-0.2c-0.1-0.2-0.1-0.4-0.3-0.5c-0.1-0.1-0.2-0.2-0.2-0.3c-0.1-0.3-0.4-0.6-0.7-0.6
	c0,0-0.1,0-0.1-0.1c-0.1-0.3-0.4-0.4-0.7-0.4L60.7,74c-0.2-0.3-0.6-0.4-1-0.3l-0.3-0.1c-0.2-0.2-0.5-0.2-0.7-0.1c-1.8,0-3.6,0-5.4,0
	c-0.5,0-0.5,0-0.5,0.5V88c0,0.3-0.2,0.6,0,0.9c0.1,0.1,0.2,0.1,0.3,0c0,0,0,0,0,0h5.3c0.1,0.1,0.3,0.1,0.4,0c0.1-0.1,0.3-0.1,0.4,0
	c0.3,0,0.6-0.1,0.9-0.2c1.3-0.4,2.4-1.3,3-2.6c0.3-0.3,0.4-0.6,0.3-1c0.1-0.3,0.1-0.7,0.2-1C63.8,83.7,63.8,83.3,63.7,82.9z
	 M61.1,84.4c-0.3,1.5-1.6,2.5-3.1,2.3c-0.9,0-1.8,0-2.7,0c-0.3,0-0.3-0.1-0.3-0.3c0-1.8,0-3.5,0-5.3s0-3.5,0-5.2
	c0-0.2,0-0.3,0.3-0.3c1.1,0,2.1,0,3.2,0.1c1.3,0.1,2.4,1.1,2.5,2.4C61.5,80.2,61.5,82.3,61.1,84.4z"/>
<path d="M58.6,89.4c-0.1,0-0.2,0-0.3-0.1h-5.1c-0.3,0.1-0.6,0-0.8-0.2L52.3,89c-0.1-0.3-0.1-0.6-0.1-0.9c0-0.1,0-0.1,0-0.2V74
	c0-0.7,0.2-1,1-1h5.4c0.3-0.1,0.7-0.1,1,0.2h0.1c0.5-0.1,0.9,0.1,1.3,0.4h0.2c0.4,0,0.7,0.2,0.9,0.6c0.4,0.2,0.7,0.5,0.9,0.9
	c0,0,0,0.1,0.1,0.1c0.2,0.1,0.4,0.4,0.5,0.7l0,0c0.1,0.1,0.2,0.3,0.2,0.4l0.1,0.2c0.2,0.3,0.3,0.6,0.3,1v0.2
	c0.2,0.2,0.2,0.5,0.2,0.8c0,0.2,0,0.2,0,0.2v0.2v4c0.1,0.4,0.1,0.9-0.1,1.3L63.8,85c0,0.5-0.1,0.9-0.4,1.3c-0.6,1.3-1.8,2.3-3.2,2.8
	c-0.3,0.2-0.6,0.3-1,0.3h-0.1h-0.2l0,0C58.8,89.4,58.7,89.4,58.6,89.4z M53.2,88.4h5.3c0.2-0.1,0.4-0.1,0.6-0.1l0,0
	c0.3,0,0.4,0,0.5-0.1l0.2-0.1c1.2-0.3,2.2-1.2,2.7-2.3l0.1-0.2c0.2-0.2,0.2-0.4,0.2-0.6v0l0.2-1.1c0.1-0.4,0.2-0.6,0.1-0.8V83v-4
	c-0.1-0.2-0.1-0.5,0-0.7l0,0l-0.1-0.1L63,77.5v-0.1c0-0.1,0-0.1,0-0.2L62.9,77l-0.2-0.5c-0.1-0.1-0.1-0.2-0.1-0.3
	c0-0.1,0-0.1-0.1-0.2c-0.2-0.1-0.3-0.3-0.4-0.5c-0.1-0.3-0.2-0.4-0.3-0.4c-0.2,0-0.4-0.2-0.5-0.3c-0.1-0.1-0.2-0.2-0.3-0.2h-0.1
	l-0.5-0.2c-0.3-0.2-0.4-0.2-0.5-0.2l-0.1,0.1L59.1,74L59,73.9c0,0,0,0-0.2,0h-0.2h-5.4V88C53.3,88.1,53.3,88.3,53.2,88.4L53.2,88.4z
	 M62.8,76.6L62.8,76.6z M63.5,76L63.5,76C63.5,76,63.5,76,63.5,76L63.5,76z M55.4,87.2c-0.2,0-0.4-0.1-0.5-0.2
	c-0.1-0.2-0.2-0.4-0.2-0.6c0-1.3,0-2.7,0-4v-2.6c0-1.3,0-2.6,0-4c0-0.2,0.1-0.5,0.2-0.6c0.2-0.1,0.4-0.2,0.6-0.2c0.4,0,0.8,0,1.2,0
	c0.7,0,1.4,0,2.1,0.1c1.6,0.1,2.8,1.3,3,2.8c0.3,2.1,0.3,4.3,0,6.5l0,0c-0.3,1.7-1.8,2.9-3.5,2.7L55.4,87.2L55.4,87.2z M56.1,86.2
	H58c1.2,0.1,2.3-0.7,2.6-1.9c0.3-2,0.3-4.1,0-6.2c-0.1-1.1-1-2-2.1-2c-0.6-0.1-1.3-0.1-1.9-0.1h-1c0,1.3,0,2.5,0,3.8v2.6
	c0,1.3,0,2.5,0,3.8L56.1,86.2z"/>
<path fill="#8DC53F" d="M39.8,87.8c-0.2,0-0.2-0.2-0.4-0.3s-0.2,0-0.2-0.2l-0.1-0.2c-0.3-0.2-0.5-0.5-0.6-0.8c0-0.1,0-0.2-0.1-0.2
	c-0.2-0.3-0.3-0.6-0.3-0.9c0-0.1,0-0.3-0.1-0.4c-0.1-0.2-0.1-0.4,0-0.6c0-0.2,0-0.4,0-0.7c0-3,0-6.1,0-9.2c0-0.8,0-0.8,0.8-0.8
	c0.5,0,1,0,1.5,0V83c0,0.1,0,0.3,0,0.4c0.1,0.1,0.1,0.2,0.1,0.2c0,0.2,0,0.4,0,0.5c0,0.2,0.1,0.4,0,0.6c0,0,0,0.1,0,0.1c0,0,0,0,0,0
	c0.2,0.1,0.2,0.3,0.2,0.6v0.1c0.3,0.3,0.6,0.6,1,0.9l0.1,0.1c0.4,0.1,0.8,0.2,1.2,0.4c0.2,0,0.4,0,0.6,0c0.2-0.1,0.4-0.1,0.5-0.2
	c0.5-0.1,1-0.4,1.4-0.7c0.1-0.1,0.2-0.1,0.3-0.2c0.1-0.1,0.2-0.1,0.2-0.2c0.1-0.4,0.2-0.7,0.5-1c0.1-0.1,0.1-0.2,0-0.3
	c-0.1-0.2,0-0.5,0.1-0.7c0-0.9,0-1.9,0-2.8c0-2.4,0-4.7,0-7.1c-0.1-0.1-0.1-0.1,0-0.2c0,0,0,0,0,0c0.4,0,0.7,0,1.1,0s0.8,0,1.3,0
	c0.1,0.1,0.1,0.2,0,0.3c0,0,0,0,0,0c0,1.2,0,2.3,0,3.5c0,2.2,0,4.5,0,6.7c0.1,0.4,0,0.9-0.2,1.2c-0.4,1.4-1.3,2.6-2.7,3.2l-0.4,0.2
	c-0.5,0.3-1.1,0.5-1.6,0.5c-0.3-0.1-0.7-0.1-1,0c-0.2,0-0.4,0-0.5-0.1l-0.6-0.1c-0.3,0.2-0.5,0-0.7-0.1c-0.4-0.2-0.8-0.4-1.2-0.7
	C39.9,88,39.8,87.9,39.8,87.8z"/>
<path d="M43,89.6c-0.2,0-0.4-0.1-0.5-0.2h-0.3c-0.3,0.1-0.6,0.1-0.8-0.1l-0.1-0.1c-0.5-0.2-1-0.4-1.4-0.7l-0.1-0.1
	c-0.2-0.1-0.3-0.2-0.4-0.4c-0.1,0-0.1-0.1-0.2-0.2c-0.2-0.1-0.4-0.2-0.4-0.5l0,0c-0.4-0.2-0.6-0.6-0.7-1v-0.1
	c-0.4-0.4-0.5-0.9-0.4-1.4l0,0l0,0v-0.1c-0.1-0.2-0.1-0.5-0.1-0.8c0-0.1,0-0.3,0-0.4c0-0.1,0-0.1,0-0.2v-9.2c0-0.5,0-0.8,0.3-1.1
	s0.5-0.2,1-0.2h0.5c0.4,0,0.8,0,1.2,0l0.4,0.1v10.2l0,0c0.1,0.1,0.1,0.2,0.1,0.3v0.2c0,0.1,0,0.2,0,0.2v0.1c0,0,0,0.1,0,0.1
	c0,0.1,0,0.3,0,0.4c0.1,0.2,0.2,0.3,0.2,0.5l0.4,0.4l0.4,0.4c0.4,0.1,0.7,0.2,1.1,0.3h0.1c0.1,0,0.2,0,0.3,0
	c0.1-0.1,0.3-0.1,0.5-0.1H44c0.4-0.1,0.8-0.3,1.1-0.6c0.1-0.1,0.2-0.2,0.4-0.3c0.1-0.4,0.3-0.7,0.5-1c-0.1-0.3-0.1-0.6,0.1-0.9v-0.8
	c0-0.7,0-1.3,0-1.9v-7c-0.1-0.3,0-0.5,0.2-0.7l0.1-0.1h0.1c0.3,0,0.5,0,0.8,0c0.1,0,0.3,0,0.4,0c0.4,0,0.9,0,1.3,0h0.2l0.1,0.1
	c0.2,0.2,0.3,0.5,0.2,0.8v1c0,0.8,0,1.6,0,2.4c0,1.6,0,3.2,0,4.8V84c0.1,0.5,0,1-0.3,1.5c-0.4,1.5-1.5,2.8-2.9,3.4L45.9,89
	c-0.5,0.4-1.2,0.6-1.8,0.6H44h-0.1c-0.2-0.1-0.4-0.1-0.6,0C43.2,89.6,43.1,89.6,43,89.6z M42,88.3l1,0.2l0.1,0.1
	c0.4-0.1,0.8-0.1,1.1,0c0.5,0,0.9-0.1,1.3-0.4l0.2-0.1l0.3-0.2c1.2-0.6,2.1-1.6,2.4-2.9l0.1-0.2c0.2-0.2,0.2-0.4,0.1-0.8v-2
	c0-1.6,0-3.2,0-4.8c0-0.8,0-1.6,0-2.4V74h-0.8c-0.2,0-0.3,0-0.5,0h-0.2v6.8c0,0.7,0,1.3,0,2v1l0,0.1c-0.1,0.2-0.1,0.3,0,0.3
	c0.1,0.3,0,0.6-0.2,0.9c-0.1,0.2-0.2,0.4-0.3,0.7c0,0.2-0.2,0.5-0.4,0.6l-0.2,0.1c-0.4,0.4-1,0.8-1.6,0.9h-0.2c-0.1,0-0.1,0-0.2,0
	l-0.2,0.1c-0.2,0-0.5,0-0.7,0l-0.3-0.1c-0.3-0.1-0.7-0.2-1-0.3h-0.2l-0.2-0.2c-0.2-0.2-0.3-0.3-0.5-0.5s-0.3-0.3-0.5-0.5l-0.1-0.2
	l-0.1-0.3c0,0,0,0,0-0.1l0,0L40,84.9l0-0.3c0,0,0-0.1,0-0.1v-0.2c0-0.2-0.1-0.3-0.1-0.5v-0.1l-0.1-0.1V74c-0.2,0-0.4,0-0.5,0h-0.8
	v9.5c0,0.1,0,0.2,0,0.3c0,0.1,0,0.2,0,0.2v0.2l-0.1,0.2c0,0,0,0.1,0,0.1c0.1,0.2,0.2,0.4,0.2,0.6c0,0.2,0,0.4,0.2,0.6
	c0.1,0.1,0.2,0.3,0.2,0.5c0,0.2,0.2,0.4,0.3,0.5l0.1,0.1l0.2,0.4c0.1,0.1,0.2,0.1,0.2,0.2l0.3,0.1v0.3l0.1,0.1
	c0.4,0.2,0.7,0.4,1.1,0.6c0.1,0,0.2,0.1,0.2,0.1h0.1L42,88.3z M39.5,87L39.5,87z M46.1,84.3L46.1,84.3z"/>
<path fill="#8DC53F" d="M77.8,87.8c-0.1-0.1-0.2-0.3-0.2-0.5c0-0.4-0.1-0.9-0.4-1.2c-0.1-0.3-0.3-0.6-0.4-0.9c0.1-0.1,0.1-0.3,0-0.4
	c-0.2-0.4-0.3-0.8-0.4-1.2c-0.1-0.2-0.1-0.5-0.3-0.7c0-0.1-0.1-0.2-0.1-0.2c0-0.4-0.1-0.9-0.4-1.2c-0.2-0.4-0.3-0.7-0.4-1.1
	c0-0.4-0.1-0.9-0.4-1.2l-0.1-0.3c0-0.5-0.2-1-0.5-1.4C74,77.5,74,77.3,74,77.2c0.1-0.1,0.1-0.3,0-0.4c-0.3-0.7-0.6-1.4-0.8-2.2
	c0-0.1-0.1-0.2-0.2-0.3c0,0-0.1,0,0-0.1c0.1-0.2,0-0.5-0.2-0.6c-0.1,0,0-0.1,0-0.2c0-0.1-0.1-0.1-0.2-0.1c-0.5,0-1.1,0-1.6,0
	c-0.1,0-0.2,0-0.2,0.1l-0.1,0.2c-0.4,0.7-0.6,1.4-0.8,2.1c0,0.1,0,0.1,0,0.2c0,0-0.1,0.1-0.1,0.1c-0.3,0.7-0.5,1.4-0.8,2.1
	c0,0.1,0,0.2,0,0.3L69,78.6c-0.1,0.1-0.1,0.2-0.2,0.3s0,0.2-0.1,0.3s-0.2,0.3-0.3,0.5c-0.2,0.4-0.3,0.8-0.4,1.2
	c-0.5,1.3-1,2.6-1.4,3.9c0,0.1-0.1,0.3,0,0.4c0,0.1-0.1,0.2-0.1,0.2c-0.1,0.1-0.2,0.3-0.2,0.5V86c-0.2,0.2-0.3,0.5-0.3,0.8
	c0,0.4-0.3,0.7-0.3,1c-0.2,0.2-0.3,0.5-0.3,0.9c0,0.2,0.1,0.2,0.2,0.2h2c0.1,0,0.2,0,0.3-0.1c0.1,0,0.1-0.2,0.1-0.3c0,0,0,0,0,0
	l0.8-2.4c0-0.2,0.3-0.4,0.5-0.3c1.8,0,3.6,0,5.3,0c0.2,0,0.4,0.1,0.4,0.3c0,0,0,0,0,0c0.3,0.8,0.6,1.7,0.9,2.5
	c0,0.1,0.2,0.3,0.3,0.2c0,0,0,0,0,0c0.4,0,0.9,0,1.3,0c0.3,0,0.7,0,1-0.1C78.4,88.4,78.2,88,77.8,87.8z M69.3,83.8l2.4-6.8
	c0.8,2.3,1.6,4.5,2.3,6.8L69.3,83.8z"/>
<path d="M77.8,89.4h-0.3c-0.1,0-0.2,0-0.3,0h-1.3c-0.4,0-0.7-0.2-0.8-0.6c-0.1-0.5-0.3-1-0.5-1.5c-0.1-0.3-0.2-0.6-0.3-0.9
	c-1.8,0-3.6,0-5.3,0l-0.7,2.2c0,0.3-0.1,0.6-0.4,0.7c-0.2,0.1-0.4,0.2-0.6,0.2h-2c-0.2,0-0.4-0.1-0.6-0.2c-0.1-0.1-0.2-0.3-0.2-0.5
	c0-0.4,0.1-0.8,0.4-1.1c0-0.1,0.1-0.2,0.1-0.3c0.1-0.1,0.1-0.3,0.2-0.4c0-0.4,0.1-0.7,0.3-1c0-0.2,0.1-0.5,0.3-0.7
	c0-0.2,0-0.3,0.1-0.5l0.3-0.9c0.4-1,0.7-2,1.1-3c0.1-0.2,0.1-0.3,0.2-0.5c0.1-0.2,0.1-0.4,0.2-0.6v-0.1c0-0.2,0.1-0.4,0.3-0.5l0,0
	v-0.1c0-0.1,0.1-0.3,0.2-0.4c0-0.1,0-0.2,0-0.3l0.2-0.5c0.2-0.5,0.4-1.1,0.6-1.6c0-0.1,0.1-0.2,0.1-0.2c0.2-0.8,0.4-1.5,0.8-2.2
	l0.1-0.2c0.1-0.2,0.4-0.4,0.7-0.4h0.4c0.4,0,0.7,0,1.1,0c0.2,0,0.4,0.1,0.6,0.2l0.1,0.1v0.1c0.2,0.2,0.3,0.4,0.3,0.7
	c0.1,0.1,0.2,0.2,0.2,0.4c0.2,0.5,0.3,1,0.5,1.4l0.3,0.7c0.1,0.2,0.1,0.4,0.1,0.6l0,0l0,0c0.3,0.5,0.5,1,0.6,1.6V79
	c0.3,0.4,0.5,0.9,0.5,1.4c0.1,0.1,0.1,0.3,0.1,0.4c0.1,0.2,0.1,0.4,0.2,0.6c0.3,0.4,0.5,0.9,0.5,1.4l0,0c0.2,0.2,0.3,0.4,0.3,0.7
	c0,0,0,0.1,0,0.1c0.1,0.2,0.2,0.5,0.3,0.7s0.1,0.3,0.2,0.5c0.1,0.2,0.1,0.4,0.1,0.6c0,0.1,0.1,0.2,0.1,0.2c0,0.1,0.1,0.3,0.2,0.4
	c0.3,0.4,0.5,0.9,0.5,1.4v0.1c0,0.1,0,0.1,0.1,0.2l0,0c0.3,0.4,0.5,0.9,0.4,1.4v0.3l-0.3,0.1C78,89.3,77.9,89.3,77.8,89.4z
	 M65.6,88.7L65.6,88.7z M77.3,88.3h0.3c0-0.1-0.1-0.2-0.2-0.3c-0.1-0.2-0.2-0.3-0.2-0.5l-0.1-0.2v-0.1c0-0.3-0.1-0.7-0.3-0.9
	c-0.1-0.2-0.2-0.4-0.3-0.6c0-0.1-0.1-0.2-0.1-0.3l-0.1-0.2l0.1-0.2V85c-0.1-0.2-0.1-0.4-0.2-0.5S76,84,75.9,83.8s-0.1-0.2-0.1-0.3
	c0,0,0-0.1,0-0.2l-0.1-0.1l-0.2-0.5v-0.1c0-0.3-0.1-0.6-0.3-0.9c-0.1-0.2-0.3-0.5-0.3-0.8c0-0.1-0.1-0.3-0.1-0.4v-0.1v-0.1
	c0-0.3-0.1-0.6-0.3-0.9L74.1,79v-0.1c0-0.4-0.1-0.7-0.4-1.1c-0.1-0.1-0.2-0.3-0.2-0.4l-0.1-0.2l0.1-0.2l-0.3-0.8
	c-0.2-0.5-0.4-1-0.5-1.5l0,0h-0.1l-0.3-0.4l0.1-0.3c-0.1,0-0.1-0.1-0.2-0.1c-0.3,0-0.7,0-1,0H71c-0.3,0.6-0.6,1.2-0.7,1.8
	c0,0.1,0,0.2-0.1,0.3l-0.1,0.2h-0.1c-0.2,0.5-0.4,1-0.6,1.5l-0.1,0.4l0.1,0.1L69.1,79c0,0.3-0.1,0.5-0.3,0.6c0,0,0,0.1,0,0.1
	c0,0.1,0,0.1,0,0.2c-0.1,0.2-0.1,0.4-0.2,0.6s-0.1,0.4-0.2,0.6c-0.4,1-0.7,2-1.1,3l-0.3,1l0.1,0.1l-0.2,0.6l-0.1,0.1l0,0l-0.1,0.4
	l-0.1,0.1c-0.1,0.1-0.2,0.2-0.1,0.4c0,0.3-0.1,0.6-0.2,0.9C66,87.7,66,87.8,66,87.9v0.2l-0.1,0.1c-0.1,0-0.1,0.1-0.1,0.2h1.6L68,86
	c0.1-0.4,0.5-0.7,1-0.7l0,0c1.8,0,3.5,0,5.3,0l0,0c0.4,0,0.8,0.2,0.9,0.7c0.1,0.3,0.2,0.6,0.3,0.9c0.2,0.5,0.3,1,0.5,1.5L77.3,88.3
	L77.3,88.3z M68.3,78.8L68.3,78.8z M69.6,75.5L69.6,75.5L69.6,75.5z M72.5,74L72.5,74z M71.1,73.9L71.1,73.9
	C71.1,73.9,71.1,73.8,71.1,73.9L71.1,73.9z M72.9,73.3L72.9,73.3L72.9,73.3z M74.6,84.3h-6l3.1-8.8L74.6,84.3z M70,83.3h3.3
	l-1.6-4.7L70,83.3z"/>
<path fill="#8DC53F" d="M32.5,74.1l0.4,0.2c0.4,0.1,0.7,0.4,0.8,0.8l0.4,0.5c0.2,0.1,0.3,0.3,0.4,0.5c0.2,0.4,0.4,0.8,0.5,1.2
	c0.1,0.1,0.1,0.2,0,0.4c0,0,0,0.1,0,0.1c0,0,0,0,0,0c0.2,0.2,0.2,0.3,0.1,0.5c-0.8,0-1.5,0-2.3,0c-0.1,0-0.1-0.1-0.1-0.1
	c-0.3-1.3-1.3-2.3-2.7-2.5c-0.2-0.1-0.5-0.1-0.8,0c-1.3,0.1-2.4,1-2.6,2.3c-0.1,0.2-0.1,0.5-0.1,0.7c-0.1,0.2,0,0.3,0,0.5v0.9
	c-0.1,0.9-0.1,1.8,0,2.7v0.8c0.1,0.2,0,0.3,0.1,0.5c-0.1,1.7,1.2,3.1,2.9,3.1c0.3,0,0.7,0,1-0.1c1.1-0.3,2-1.2,2.2-2.3
	c0-0.2,0.1-0.2,0.2-0.2h2c0.2,0,0.2,0.1,0.2,0.2c0,0.1,0,0.2,0,0.3c-0.1,0.7-0.4,1.4-0.8,2c0,0.1-0.1,0.1-0.2,0.1
	c-0.4,0.5-0.9,1-1.5,1.3c-0.7,0.4-1.5,0.7-2.3,0.8c-0.4,0-0.9,0-1.3,0c-1-0.1-2.1-0.5-2.9-1.1c-0.9-0.6-1.5-1.6-1.7-2.6
	c-0.1-0.4-0.2-0.9-0.2-1.3c-0.1-0.2,0-0.4-0.1-0.6v-4.5c0.1-0.2,0-0.4,0.1-0.6c0.1-0.7,0.2-1.5,0.5-2.2c0.1-0.4,0.3-0.7,0.6-0.9
	l0.4-0.4c0.1-0.2,0.1-0.3,0.3-0.2l0.2-0.3c0.1-0.2,0.3-0.2,0.4-0.2s0.2-0.1,0.3-0.2c0.1-0.2,0.3-0.2,0.5-0.2h0.1
	c0.1-0.1,0.2-0.2,0.4-0.2c0.1,0,0.2,0,0.2-0.1c0.4-0.2,0.8-0.3,1.2-0.2h0.2c0.5-0.1,1.1-0.1,1.6,0.1c0.3,0.1,0.6,0.1,0.8,0.3
	l0.4,0.2C32.3,73.9,32.5,73.9,32.5,74.1z"/>
<path d="M29.7,89.5H29c-1.1-0.1-2.2-0.5-3.1-1.2c-0.9-0.7-1.6-1.7-1.9-2.9c-0.1-0.4-0.1-0.8-0.2-1.2v-0.1c0-0.1,0-0.2,0-0.3l0-0.1
	v-4.8v-0.1v-0.1c0-0.1,0-0.3,0-0.4c0-0.6,0.2-1.1,0.3-1.7c0.1-0.2,0.1-0.3,0.2-0.5c0.1-0.5,0.4-0.9,0.8-1.2l0.3-0.3
	c0.1-0.2,0.3-0.4,0.5-0.4l0,0c0.1-0.2,0.3-0.3,0.5-0.4h0.1l0,0c0.2-0.2,0.4-0.3,0.7-0.3c0.2-0.2,0.4-0.2,0.6-0.2
	c0.4-0.3,1-0.4,1.5-0.2c0.6-0.2,1.1-0.2,1.7,0l0.3,0.1c0.3,0,0.6,0.2,0.8,0.4l0.2,0.1c0.2,0,0.5,0.1,0.6,0.3l0.2,0.1
	c0.5,0.2,0.9,0.5,1.1,1l0.3,0.3c0.2,0.1,0.3,0.3,0.4,0.5l0,0.1c0.2,0.4,0.4,0.7,0.6,1.1c0.1,0.1,0.1,0.3,0.1,0.5
	c0.2,0.3,0.2,0.7,0,1l-0.2,0.2h-2.5c-0.3,0-0.5-0.2-0.6-0.4c-0.2-1.2-1.1-2.1-2.2-2.2c-0.2,0-0.4,0-0.6,0c-1.1,0-2,0.8-2.2,1.9V78
	c0,0.1-0.1,0.3,0,0.4v0.2l-0.1,0.2c0,0.1,0,0.2,0,0.3v0.8c-0.1,0.9-0.1,1.7,0,2.6v0.7c0,0.1,0,0.2,0,0.3l0.1,0.1v0.1
	c0,0.8,0.3,1.6,0.9,2.1c0.7,0.5,1.5,0.7,2.3,0.4c1-0.2,1.7-1,1.9-2c0.1-0.3,0.4-0.6,0.7-0.6h2c0.2,0,0.5,0.1,0.6,0.3
	c0.1,0.1,0.1,0.3,0.1,0.4c0,0.1,0,0.3,0,0.4c-0.1,0.8-0.4,1.5-0.9,2.2c-0.1,0.1-0.2,0.2-0.3,0.3c-0.4,0.5-0.9,1-1.5,1.4
	c-0.8,0.5-1.6,0.7-2.5,0.8C30.2,89.5,29.9,89.5,29.7,89.5z M24.6,83.4c0,0.1,0,0.3,0,0.4v0.3c0,0.4,0.1,0.7,0.2,1.1
	c0.2,0.9,0.8,1.8,1.6,2.3c0.7,0.6,1.6,0.9,2.6,1c0.4,0,0.9,0,1.3,0c0.7-0.1,1.4-0.3,2.1-0.7c0.5-0.3,1-0.8,1.4-1.2l0.2-0.2
	c0.3-0.5,0.6-1,0.7-1.6h-1.4c-0.3,1.2-1.3,2.2-2.5,2.5c-1.1,0.3-2.3,0.1-3.2-0.6c-0.8-0.7-1.3-1.7-1.3-2.8c0-0.1,0-0.2,0-0.4v-0.1
	v-0.9c-0.1-0.9-0.1-1.8,0-2.7l0.1-1c0-0.1,0-0.2,0-0.4c0-0.2,0-0.4,0.1-0.7c0.2-1.5,1.5-2.7,3-2.8c0.3-0.1,0.6-0.1,0.9,0
	c1.4,0.1,2.6,1.2,3,2.6h1.4l0,0l0.1-0.2c-0.1-0.4-0.3-0.7-0.5-1.1c0,0,0-0.1-0.1-0.2c0,0,0-0.1-0.1-0.1h-0.1l-0.5-0.6
	c-0.1-0.2-0.3-0.4-0.5-0.5l-0.3-0.1L32,74.4l-0.5-0.2l0-0.1c0,0-0.1-0.1-0.3-0.1l-0.4-0.1c-0.4-0.1-0.8-0.1-1.1,0h-0.3h-0.2
	c-0.2-0.1-0.5-0.1-0.8,0.1c-0.2,0.2-0.4,0.2-0.6,0.2l0,0l0,0l-0.2,0.1h-0.2l0,0l0,0.1h-0.1c-0.1,0.1-0.3,0.2-0.4,0.2l-0.1,0.1
	l-0.4,0.5h-0.1l-0.5,0.5c-0.2,0.2-0.4,0.4-0.4,0.7c0,0.1-0.1,0.3-0.1,0.5c-0.2,0.5-0.3,1-0.3,1.5v0.2c0,0,0,0.1,0,0.1
	c0,0.1,0,0.3,0,0.4L24.6,83.4z M32.5,74.1l-0.5,0.2l0,0L32.5,74.1z M27.7,74.1L27.7,74.1z M27.4,73.3L27.4,73.3z"/>
<path fill="#8DC53F" d="M35.8,52.8c-0.2-0.1-0.4-0.2-0.6-0.2c-1.1-0.2-2.1-0.6-3.1-1c-0.7-0.3-1.4-0.6-2.1-0.9
	c-0.1-0.1-0.3,0-0.4-0.2l-0.3-0.1c-0.2-0.1-0.4-0.2-0.5-0.3c-0.2-0.2-0.6-0.2-0.8-0.4c-0.1,0-0.2-0.1-0.2-0.2
	c-1.2-0.7-2.4-1.4-3.5-2.3c-1.3-1-2.5-2.1-3.6-3.2c-1.9-2-3.6-4.2-5.1-6.5c-0.4-0.7-0.9-1.4-1.3-2.1c0-0.1-0.2-0.2-0.1-0.3
	c-0.8-1.4-1.5-2.9-2.2-4.4c0-0.1-0.1-0.2-0.2-0.3c-0.2-0.3-0.1-0.7,0.2-0.9c0,0,0,0,0.1,0c0.4-0.3,0.7-0.6,1-0.9
	c0,0,0.1-0.1,0.1-0.1c1.4-1.1,2.7-2.2,4.1-3.2c4.7-3.5,10-6.2,15.6-8.1c2.2-0.7,4.5-1.2,6.8-1.4c0.1,0,0.3,0,0.4-0.1l0,0
	c0.2,0.2,0.1,0.5,0.2,0.7c0,1,0.1,1.9,0,2.9c-0.2,0.4-0.5,0.3-0.8,0.3c-1,0.1-1.9,0.3-2.9,0.4c-4.5,0.9-8.8,2.9-12.4,5.9
	c-1.5,1.3-2.9,2.7-4.2,4.2c-0.3,0.3-0.4,0.8-0.2,1.1c1.4,3.8,3.5,7.2,6.1,10.3c2.6,3.1,6,5.4,9.7,6.8c1.4,0.5,2.9,0.8,4.4,1
	c0.2,0.1,0.4,0,0.5,0.2c-0.2,0.2-0.4,0.5-0.3,0.8c0,0.8,0,1.6,0,2.3c0,0.2,0,0.5-0.2,0.6l0,0H40h-0.6c-0.2,0-0.4,0-0.5-0.1
	C37.8,53.2,36.8,53,35.8,52.8z"/>
<path d="M40,54.5l-0.8-0.1c-0.2,0-0.4,0-0.6-0.1c-0.8-0.1-1.5-0.2-2.2-0.4l-0.9-0.2h-0.2l-0.1-0.1c0,0-0.1,0-0.2,0H35
	c-1.1-0.2-2.2-0.6-3.3-1l-0.4-0.2c-0.6-0.2-1.1-0.5-1.7-0.7c-0.2,0-0.4-0.1-0.5-0.3l0,0c-0.2-0.1-0.4-0.2-0.5-0.3L28.2,51l0,0
	c-0.2-0.1-0.4-0.2-0.6-0.3c-0.1-0.1-0.3-0.1-0.4-0.3c-1.2-0.7-2.4-1.5-3.5-2.5c-1.3-1-2.6-2.1-3.7-3.3c-2-2-3.7-4.3-5.2-6.6
	c-0.3-0.5-0.6-0.9-0.9-1.4L13.5,36c-0.1-0.1-0.2-0.3-0.2-0.4c-0.8-1.4-1.5-2.9-2.1-4.4C11.1,31.1,11,31,11,30.8
	c-0.4-0.8-0.1-1.7,0.7-2.1c0.2-0.1,0.3-0.3,0.5-0.4l0.2-0.2c0.1-0.1,0.2-0.2,0.4-0.3l0.9-0.7c1-0.8,2-1.6,3.1-2.4
	c4.8-3.6,10.2-6.4,15.9-8.3c2.3-0.7,4.7-1.2,7.1-1.4h0.1h0.2l0.2,0.9l0.7-0.7l1.5,1.4l-1,0.2c0,0.3,0,0.5,0,0.8c0,0.7,0,1.4-0.1,2.1
	v0.2l-0.1,0.2c-0.3,0.6-0.9,0.9-1.5,0.9c-1,0.1-1.9,0.2-2.8,0.4c-4.4,0.9-8.5,2.8-12,5.6c-1.5,1.2-2.8,2.5-4,4l-1,0.5l0.9-0.4
	c1.4,3.7,3.4,7,5.9,10c2.5,2.9,5.7,5.2,9.3,6.5c1.4,0.5,2.8,0.8,4.2,1l0.3,0.1c0.4,0,0.7,0.2,0.9,0.6l0.5,0.8l-0.7,0.5v0.1
	c0,0.6,0,1.3,0,1.9l1.3-0.1L41,54.1l0,0l-0.7-0.7l0.1,1L40,54.5z M39.3,52.4h0.1c0-0.7,0-1.3,0-1.9v-0.2c-1.3-0.2-2.6-0.5-3.9-1
	c-3.9-1.5-7.4-3.9-10.2-7.1c-2.7-3.1-4.8-6.7-6.3-10.6c-0.3-0.7-0.2-1.5,0.3-2.1c1.3-1.6,2.7-3,4.3-4.3c3.7-3,8.1-5.1,12.8-6.1
	c1-0.2,1.9-0.4,2.9-0.5c0-0.4,0-0.9,0-1.4c0-0.2,0-0.3,0-0.5c-2.1,0.2-4.1,0.7-6.1,1.3c-5.5,1.8-10.7,4.5-15.4,8c-1,0.7-2,1.6-3,2.4
	l-1.3,1l-0.1,0.1c-0.2,0.2-0.4,0.4-0.6,0.6c0,0.1,0.1,0.1,0.1,0.2c0.6,1.5,1.3,2.9,2.1,4.3l0.2,0.3l0,0l0,0l0.4,0.6l0.8,1.4
	c1.4,2.3,3.1,4.4,5,6.3c1.1,1.1,2.2,2.2,3.5,3.1c1,0.8,2.2,1.6,3.4,2.2l0.1,0.1h0.2l0.2,0.3c0.2,0.1,0.4,0.2,0.6,0.3h0.1l0.1,0.1
	l0.8,0.4l0.1,0.1c0.5,0.2,0.9,0.4,1.5,0.6l0.5,0.2c0.9,0.4,1.9,0.7,2.9,0.9c0.3,0,0.5,0.1,0.7,0.2l0.8,0.2c0.7,0.2,1.4,0.3,2.1,0.4
	L39.3,52.4z"/>
<path fill="#8DC53F" d="M40.3,45.7c0-0.2-0.1-0.4-0.3-0.4c0,0,0,0,0,0c-4.9-1-9.2-4-11.8-8.2c-1.1-1.7-2-3.5-2.7-5.4
	c-0.1-0.3,0-0.6,0.2-0.8c3.5-3.3,7.9-5.6,12.7-6.6c0.5-0.1,0.9-0.1,1.4-0.2c0.2,0,0.4,0,0.5-0.2s0.2,0,0.2,0.1
	c-0.1,1.2-0.1,2.3-0.1,3.5c0,0.1,0,0.3,0,0.4c0,0.1,0,0.1-0.1,0.1c-1-0.1-2,0-2.9,0.3c-2.1,0.6-4,1.8-5.5,3.4
	c-0.2,0.2-0.2,0.4-0.1,0.6c1,2.9,2.7,5.5,5.1,7.5c0.8,0.6,1.7,1.1,2.6,1.5c0.2,0.1,0.5,0.2,0.6,0.3v0.1c0,1.1,0,2.2,0,3.3
	c0,0.1,0,0.3,0.1,0.4C40.3,45.5,40.5,45.7,40.3,45.7z"/>
<path d="M39.3,46.8v-0.6c-5-1.1-9.3-4.2-11.9-8.5c-1.2-1.8-2.1-3.7-2.8-5.7c-0.3-0.7-0.1-1.4,0.5-1.9c3.6-3.5,8.2-5.8,13.1-6.8
	c0.3-0.1,0.6-0.1,0.9-0.1l0.6-0.1l0,0l0.2-0.1c0.5-0.3,1.2-0.1,1.5,0.4c0.1,0.2,0.1,0.4,0.1,0.6v0.1v0.1c-0.1,0.7-0.1,1.4-0.1,2.1
	c0,0.4,0,0.8,0,1.3c0,0.2,0,0.3,0,0.5c0,0.3-0.2,0.6-0.4,0.8l-0.3,0.3h-0.4c-0.9-0.1-1.8,0-2.6,0.2c-1.9,0.5-3.5,1.6-4.8,3
	c0.9,2.7,2.6,5,4.8,6.8c0.7,0.6,1.5,1,2.4,1.3h0.1c0.4,0.1,0.7,0.3,0.9,0.6l0.1,0.2l0.1,0.5v3.1l0.3,0.3l-0.2,0.4
	c0,0.2,0,0.4-0.2,0.6c-0.2,0.3-0.5,0.5-0.9,0.5L39.3,46.8z M26.5,31.5c0.6,1.8,1.4,3.5,2.5,5.1c2.3,3.8,6,6.5,10.3,7.6v-1.8l0,0
	c-1-0.4-2-1-2.9-1.7c-2.5-2.1-4.4-4.8-5.5-7.9c-0.2-0.6-0.1-1.2,0.3-1.6c1.6-1.8,3.6-3,5.9-3.7c0.7-0.2,1.5-0.3,2.3-0.3
	c0-0.2,0-0.5,0-0.7c0-0.4,0-0.8,0-1.2h-0.1c-0.3,0-0.5,0.1-0.8,0.1C34.1,26.2,29.9,28.3,26.5,31.5z"/>
<path fill="#8DC53F" d="M40.5,24c0-0.1-0.1-0.1-0.2-0.1v-4.4c6.5-0.6,12,1.7,17,5.6c1.7,1.4,3.3,2.9,4.7,4.6
	c0.2,0.2,0.3,0.5,0.1,0.8c0,0,0,0-0.1,0.1c-2.6,3.4-5.7,6.4-9.3,8.8c-2,1.4-4.4,2.4-6.8,2.9c-1.9,0.3-3.8,0.2-5.6-0.4l0,0
	c-0.1-0.2-0.2-0.5-0.1-0.7c0-4.1,0-8.2,0-12.3c0-0.2,0-0.5,0.2-0.7h0.1c0.2-0.1,0.4-0.1,0.6-0.1c1.6,0.2,3,0.8,4.2,1.9
	c0.8,0.8,1.6,1.7,2.2,2.7l1.4,2.3c0.3,0.5,0.3,0.5,0.7,0.1c1.6-1.3,3.1-2.6,4.6-3.9c0.3-0.2,0.5-0.4,0.8-0.6c0.4-0.4,0.4-0.4,0-0.9
	c-0.9-0.9-1.9-1.8-2.9-2.5c-2.1-1.6-4.6-2.6-7.3-2.9c-1.2-0.2-2.4-0.2-3.6-0.1C40.9,24.2,40.7,24.1,40.5,24z"/>
<path d="M43.9,43.4c-1.3,0-2.6-0.2-3.9-0.6l-0.3-0.1l-0.3-0.4c-0.2-0.4-0.3-0.8-0.3-1.2v-1.2c0-3.7,0-7.4,0-11.1
	c-0.1-0.5,0.1-1,0.5-1.4l0.3-0.3h0.3c0.3-0.1,0.7-0.2,1.1-0.1c1.7,0.2,3.4,0.9,4.7,2.1c0.9,0.9,1.7,1.8,2.3,2.9
	c0.3,0.5,0.6,1,0.9,1.5l0.2,0.3c0.8-0.7,1.7-1.4,2.5-2.1l1.9-1.6l0.1-0.1c-0.7-0.7-1.5-1.4-2.4-2c-2-1.5-4.3-2.4-6.8-2.8
	c-1.1-0.2-2.2-0.2-3.4-0.1c-0.4,0.1-0.9,0-1.3-0.2h-0.7v-6.4l0.9-0.1c6.2-0.5,12,1.4,17.7,5.8c1.8,1.4,3.4,3,4.8,4.7
	c0.6,0.6,0.6,1.5,0,2.1c-2.7,3.5-5.9,6.5-9.5,9c-2.2,1.5-4.6,2.5-7.2,3C45.3,43.3,44.6,43.4,43.9,43.4z M41.1,41
	c1.5,0.4,3,0.5,4.6,0.2c2.3-0.4,4.5-1.4,6.4-2.7c3.4-2.3,6.4-5.1,8.9-8.4c-1.3-1.6-2.8-3-4.4-4.2c-5-3.9-10-5.7-15.3-5.5v2.7
	c1.2-0.1,2.4-0.1,3.6,0.1c2.8,0.4,5.4,1.4,7.7,3.1c1.1,0.8,2.1,1.6,3,2.6c0.3,0.3,0.5,0.7,0.6,1.2c-0.1,0.4-0.3,0.9-0.7,1.1L55,31.7
	l-1.9,1.6c-1,0.8-2,1.7-3,2.5c-0.3,0.3-0.7,0.5-1.2,0.4c-0.4-0.1-0.8-0.4-1-0.8l-0.5-0.8L46.5,33c-0.6-0.9-1.2-1.8-2-2.5
	c-1-0.8-2.1-1.3-3.4-1.5c0,3.7,0,7.3,0,10.8V41z"/>
</svg>
