<?xml version="1.0" encoding="utf-8"?>
<!-- Generator: Adobe Illustrator 24.0.1, SVG Export Plug-In . SVG Version: 6.00 Build 0)  -->
<svg version="1.1" id="Layer_1" xmlns="http://www.w3.org/2000/svg" xmlns:xlink="http://www.w3.org/1999/xlink" x="0px" y="0px"
	 viewBox="0 0 100 100" enable-background="new 0 0 100 100" xml:space="preserve">
<title>Pycharm</title>
<g id="Layer_22">
	
		<linearGradient id="SVGID_1_" gradientUnits="userSpaceOnUse" x1="38.29" y1="944.135" x2="87.57" y2="944.135" gradientTransform="matrix(1 0 0 1 0 -906)">
		<stop  offset="0" style="stop-color:#21D789"/>
		<stop  offset="1" style="stop-color:#07C3F2"/>
	</linearGradient>
	<polygon fill="url(#SVGID_1_)" stroke="#000000" stroke-width="2" stroke-miterlimit="10" points="66.8,19.2 90.9,39.4 82.3,57.1 
		67.6,53 55.1,53 	"/>
	
		<linearGradient id="SVGID_2_" gradientUnits="userSpaceOnUse" x1="-20.3417" y1="982.0677" x2="81.1283" y2="907.1677" gradientTransform="matrix(1 0 0 1 0 -906)">
		<stop  offset="1.000000e-02" style="stop-color:#FCF84A"/>
		<stop  offset="0.11" style="stop-color:#A7EB62"/>
		<stop  offset="0.21" style="stop-color:#5FE077"/>
		<stop  offset="0.27" style="stop-color:#32DA84"/>
		<stop  offset="0.31" style="stop-color:#21D789"/>
		<stop  offset="0.58" style="stop-color:#21D789"/>
		<stop  offset="0.6" style="stop-color:#21D789"/>
		<stop  offset="0.69" style="stop-color:#20D68C"/>
		<stop  offset="0.76" style="stop-color:#1ED497"/>
		<stop  offset="0.83" style="stop-color:#19D1A9"/>
		<stop  offset="0.9" style="stop-color:#13CCC2"/>
		<stop  offset="0.97" style="stop-color:#0BC6E1"/>
		<stop  offset="1" style="stop-color:#07C3F2"/>
	</linearGradient>
	<polygon fill="url(#SVGID_2_)" stroke="#000000" stroke-width="2" stroke-miterlimit="10" points="42.4,32.3 37.7,57.1 37.2,65.6 
		25.5,70.7 8.7,72.4 13.8,18.9 44.1,6.2 62.8,18.5 	"/>
	
		<linearGradient id="SVGID_3_" gradientUnits="userSpaceOnUse" x1="19.7589" y1="1004.0596" x2="36.6888" y2="950.9496" gradientTransform="matrix(1 0 0 1 0 -906)">
		<stop  offset="0" style="stop-color:#21D789"/>
		<stop  offset="0.16" style="stop-color:#24D788"/>
		<stop  offset="0.3" style="stop-color:#2FD886"/>
		<stop  offset="0.44" style="stop-color:#41DA82"/>
		<stop  offset="0.56" style="stop-color:#5ADC7D"/>
		<stop  offset="0.69" style="stop-color:#7AE077"/>
		<stop  offset="0.81" style="stop-color:#A1E36E"/>
		<stop  offset="0.93" style="stop-color:#CFE865"/>
		<stop  offset="1" style="stop-color:#F1EB5E"/>
	</linearGradient>
	<polygon fill="url(#SVGID_3_)" stroke="#000000" stroke-width="2" stroke-miterlimit="10" points="42.4,32.3 44.7,80.1 37.1,89 
		8.7,72.4 32,37.7 	"/>
	
		<linearGradient id="SVGID_4_" gradientUnits="userSpaceOnUse" x1="42.1312" y1="957.8609" x2="78.9612" y2="908.3409" gradientTransform="matrix(1 0 0 1 0 -906)">
		<stop  offset="0" style="stop-color:#21D789"/>
		<stop  offset="6.000000e-02" style="stop-color:#24D788"/>
		<stop  offset="0.11" style="stop-color:#2FD886"/>
		<stop  offset="0.16" style="stop-color:#41DA82"/>
		<stop  offset="0.21" style="stop-color:#5ADD7D"/>
		<stop  offset="0.25" style="stop-color:#79E077"/>
		<stop  offset="0.26" style="stop-color:#7CE076"/>
		<stop  offset="0.5" style="stop-color:#8CE173"/>
		<stop  offset="0.92" style="stop-color:#B2E56B"/>
	</linearGradient>
	<polygon fill="url(#SVGID_4_)" stroke="#000000" stroke-width="2" stroke-miterlimit="10" points="73.7,28.8 44.9,28.8 70.3,6.2 	
		"/>
	
		<linearGradient id="SVGID_5_" gradientUnits="userSpaceOnUse" x1="98.49" y1="964.1874" x2="24.29" y2="963.4974" gradientTransform="matrix(1 0 0 1 0 -906)">
		<stop  offset="0.39" style="stop-color:#FCF84A"/>
		<stop  offset="0.54" style="stop-color:#ECF451"/>
		<stop  offset="0.83" style="stop-color:#C2E964"/>
		<stop  offset="0.92" style="stop-color:#B2E56B"/>
	</linearGradient>
	<polygon fill="url(#SVGID_5_)" stroke="#000000" stroke-width="2" stroke-miterlimit="10" points="91.5,80.3 66.2,88.9 32.6,79.4 
		42.4,32.3 46.3,28.8 66.8,26.9 64.9,47.5 81.2,41.2 	"/>
	<rect x="24.6" y="22" stroke="#000000" stroke-width="2" stroke-miterlimit="10" width="51.1" height="51.1"/>
	<rect x="29.4" y="63.6" fill="#FFFFFF" stroke="#000000" stroke-width="2" stroke-miterlimit="10" width="19.2" height="3.2"/>
	<path fill="#FFFFFF" stroke="#000000" stroke-width="2" stroke-miterlimit="10" d="M29.2,28.8h8.6c5.1,0,8.2,3,8.2,7.3v0.1
		c0,4.8-3.8,7.5-8.5,7.5h-3.6V50h-4.6V28.8H29.2z M37.6,39.4c2.4,0,3.7-1.4,3.7-3.2v-0.1c0-2.1-1.4-3.2-3.8-3.2h-3.6v6.5H37.6z"/>
	<path fill="#FFFFFF" stroke="#000000" stroke-width="2" stroke-miterlimit="10" d="M47.9,39.4L47.9,39.4c-0.1-5.9,4.6-10.9,10.5-11
		c0.2,0,0.3,0,0.5,0c3.1-0.2,6.2,1,8.4,3.3l-3,3.4c-1.4-1.5-3.4-2.3-5.4-2.4c-3.5,0-6.2,3-6.2,6.6v-0.1c0,3.7,2.5,6.6,6.2,6.6
		c2.1,0,4.1-0.9,5.6-2.5l3,3c-2.1,2.5-5.3,3.9-8.6,3.8c-5.8,0.2-10.7-4.3-10.9-10.2C47.9,39.9,47.9,39.7,47.9,39.4"/>
</g>
</svg>
