<?xml version="1.0" encoding="utf-8"?>
<!-- Generator: Adobe Illustrator 24.0.1, SVG Export Plug-In . SVG Version: 6.00 Build 0)  -->
<svg version="1.1" id="Layer_1" xmlns="http://www.w3.org/2000/svg" xmlns:xlink="http://www.w3.org/1999/xlink" x="0px" y="0px"
	 viewBox="0 0 100 100" enable-background="new 0 0 100 100" xml:space="preserve">
<title>Python</title>
<g id="Layer_3">
	
		<linearGradient id="SVGID_1_" gradientUnits="userSpaceOnUse" x1="-567.9246" y1="94.5563" x2="-567.6746" y2="94.7963" gradientTransform="matrix(189.38 0 0 189.81 107564.9219 -17935.5215)">
		<stop  offset="0" style="stop-color:#387EB8"/>
		<stop  offset="1" style="stop-color:#366994"/>
	</linearGradient>
	<path fill="url(#SVGID_1_)" stroke="#000000" stroke-width="2" stroke-miterlimit="10" d="M50,3.9c-23.7,0-22.2,10.3-22.2,10.3
		v10.6h22.6V28H18.9c0,0-15.1-1.8-15.1,22.1s13.3,23,13.3,23h7.9V62.1c0,0-0.4-13.2,13-13.2h22.4c0,0,12.6,0.2,12.6-12.2V16.2
		C72.9,16.2,74.8,3.9,50,3.9z M37.6,11c2.2,0,4.1,1.8,4.1,4.1s-1.8,4.1-4.1,4.1c-2.2,0-4.1-1.8-4.1-4.1c0,0,0,0,0,0
		C33.5,12.8,35.3,11,37.6,11C37.6,11,37.6,11,37.6,11z"/>
	
		<linearGradient id="SVGID_2_" gradientUnits="userSpaceOnUse" x1="-568.126" y1="94.3679" x2="-567.8561" y2="94.6179" gradientTransform="matrix(189.38 0 0 189.81 107630.9219 -17871.248)">
		<stop  offset="0" style="stop-color:#FFE052"/>
		<stop  offset="1" style="stop-color:#FFC331"/>
	</linearGradient>
	<path fill="url(#SVGID_2_)" stroke="#000000" stroke-width="2" stroke-miterlimit="10" d="M50.7,96.6c23.7,0,22.2-10.3,22.2-10.3
		V75.7H50.3v-3.2h31.6c0,0,15.2,1.7,15.2-22.2s-13.2-23-13.2-23h-7.9v11c0,0,0.4,13.2-13,13.2H40.5c0,0-12.6-0.2-12.6,12.2v20.4
		C27.9,84.3,26,96.6,50.7,96.6z M63.2,89.5c-2.2,0-4.1-1.8-4.1-4.1c0-2.2,1.8-4.1,4.1-4.1s4.1,1.8,4.1,4.1c0,0,0,0,0,0
		C67.2,87.7,65.4,89.5,63.2,89.5C63.2,89.5,63.2,89.5,63.2,89.5z"/>
</g>
</svg>
