<?xml version="1.0" encoding="utf-8"?>
<!-- Generator: Adobe Illustrator 24.0.1, SVG Export Plug-In . SVG Version: 6.00 Build 0)  -->
<svg version="1.1" id="Layer_1" xmlns="http://www.w3.org/2000/svg" xmlns:xlink="http://www.w3.org/1999/xlink" x="0px" y="0px"
	 viewBox="0 0 100 100" enable-background="new 0 0 100 100" xml:space="preserve">
<title>React</title>
<g id="Layer_4">
	<circle fill="#00D8FF" stroke="#000000" stroke-width="2" stroke-miterlimit="10" cx="50" cy="49.6" r="8.4"/>
	<path fill="#00D8FF" stroke="#000000" stroke-width="2" stroke-miterlimit="10" d="M50,68.8c-11.8,0-22.1-1.4-29.9-4
		C9.5,61.2,2.9,55.3,2.9,49.6C2.9,44,9,38.6,19.2,35c8.4-2.9,19.3-4.5,30.8-4.5l0,0c11.2,0,22,1.6,30.3,4.5C90.8,38.6,97,44,97,49.6
		c0,5.8-6.8,11.6-17.8,15.2C71.4,67.4,61,68.8,50,68.8z M50,34.5c-10.8,0-21.6,1.6-29.4,4.3c-9.5,3.3-13.7,7.8-13.7,10.8
		s4.5,8,14.5,11.4c7.3,2.5,17.2,3.8,28.5,3.8c10.7,0,20.6-1.3,28-3.8C88.3,57.6,93,52.7,93,49.6c0-2.9-4.4-7.5-14-10.9
		C71,36,60.7,34.5,50,34.5z"/>
	<path fill="#00D8FF" stroke="#000000" stroke-width="2" stroke-miterlimit="10" d="M30.9,91.5c-1.6,0-3.1-0.3-4.5-1.1
		c-4.8-2.8-6.5-10.8-4.4-21.4c1.6-8.7,5.7-19,11.4-28.9l0,0c5.6-9.7,12.4-18.3,19-24c8.4-7.3,16.2-10,21-7.2c5,2.9,6.7,11.7,4.3,23
		C76,40,72,49.7,66.5,59.3c-5.9,10.2-12.2,18.4-18.4,23.8S35.7,91.5,30.9,91.5z M36.8,42.1c-5.4,9.4-9.4,19.5-11,27.6
		c-1.9,9.8-0.1,15.7,2.5,17.2s9.2,0.1,17.1-6.8c5.8-5.1,11.9-13,17.6-22.8c5.3-9.2,9.1-18.5,10.7-26.1c2.2-10.7,0.3-17.2-2.4-18.8
		c-2.5-1.4-8.7,0-16.4,6.7C48.6,24.6,42.2,32.8,36.8,42.1L36.8,42.1z"/>
	<path fill="#00D8FF" stroke="#000000" stroke-width="2" stroke-miterlimit="10" d="M69,91.5c-4.6,0-10.3-2.8-16.4-7.9
		C46,77.8,39.1,69.2,33.4,59.3c-5.6-9.7-9.7-19.8-11.4-28.5c-2.1-10.9-0.5-19,4.3-21.8c5-2.9,13.5,0.1,22.1,7.8
		c6.1,5.4,12.6,13.7,18.1,23.3c5.9,10.2,9.9,19.8,11.5,27.8c2.2,11,0.4,19.6-4.6,22.5C72.1,91.2,70.6,91.6,69,91.5z M30.7,11.9
		c-0.8,0-1.7,0.2-2.4,0.6C25.8,13.9,24,20,25.9,30c1.6,8.2,5.5,17.9,10.9,27.2l0,0c5.4,9.4,12.2,17.9,18.5,23.3
		c7.6,6.5,13.6,7.9,16.2,6.4s4.7-8,2.6-18.3c-1.5-7.6-5.3-16.8-11-26.6c-5.3-9.2-11.5-17.1-17.3-22.3C39.5,14.1,34.1,11.9,30.7,11.9
		z"/>
</g>
</svg>
