<?xml version="1.0" encoding="utf-8"?>
<!-- Generator: Adobe Illustrator 24.0.1, SVG Export Plug-In . SVG Version: 6.00 Build 0)  -->
<svg version="1.1" id="Layer_1" xmlns="http://www.w3.org/2000/svg" xmlns:xlink="http://www.w3.org/1999/xlink" x="0px" y="0px"
	 viewBox="0 0 100 100" enable-background="new 0 0 100 100" xml:space="preserve">
<title>Rust</title>
<g id="Layer_16">
	<circle fill="#FFFFFF" cx="49" cy="49" r="40"/>
	<path d="M96.9,48.9l-4-2.5c0-0.4-0.1-0.8-0.1-1.2l3.4-3.2c0.4-0.3,0.5-0.8,0.4-1.3c-0.1-0.5-0.4-0.8-0.9-1L91.4,38
		c-0.1-0.4-0.2-0.8-0.3-1.1l2.8-3.9c0.4-0.6,0.3-1.5-0.3-1.9c-0.2-0.1-0.4-0.2-0.6-0.2l-4.7-0.8c-0.2-0.4-0.4-0.7-0.6-1l2-4.3
		c0.3-0.7,0.1-1.5-0.6-1.9c-0.2-0.1-0.4-0.2-0.7-0.1l-4.7,0.2c-0.2-0.3-0.5-0.6-0.7-0.9l1.1-4.6c0.2-0.7-0.3-1.5-1-1.7
		c-0.2,0-0.4,0-0.6,0l-4.6,1.1c-0.3-0.3-0.6-0.5-0.9-0.8l0.2-4.7c0-0.8-0.5-1.4-1.3-1.5c-0.2,0-0.5,0-0.7,0.1l-4.3,2l-1-0.6
		l-0.8-4.7c-0.1-0.5-0.4-0.9-0.9-1.1c-0.4-0.2-0.9-0.1-1.3,0.2l-3.9,2.8l-1.1-0.4L60,3.9c-0.3-0.7-1.1-1.1-1.8-0.8
		c-0.2,0.1-0.4,0.2-0.5,0.3l-3.2,3.5l-1.2-0.1l-2.5-4c-0.3-0.4-0.7-0.7-1.2-0.7c-0.5,0-0.9,0.2-1.2,0.7l-2.5,4l-1.2,0.1l-3.2-3.5
		c-0.5-0.6-1.4-0.6-2-0.1c-0.2,0.1-0.3,0.3-0.3,0.5l-1.6,4.4l-1.1,0.4l-3.8-2.8c-0.6-0.4-1.5-0.3-1.9,0.3c-0.1,0.2-0.2,0.4-0.2,0.6
		l-0.8,4.7c-0.4,0.2-0.7,0.4-1,0.6l-4.3-2c-0.7-0.3-1.5-0.1-1.9,0.6c-0.1,0.2-0.2,0.5-0.1,0.7l0.2,4.7l-0.9,0.8L17,15.8
		c-0.7-0.2-1.5,0.3-1.7,1c0,0.2,0,0.4,0,0.6l1.1,4.6c-0.3,0.3-0.5,0.6-0.7,0.9L11,22.8c-0.8,0-1.4,0.6-1.5,1.3c0,0.2,0,0.5,0.1,0.7
		l2,4.3c-0.2,0.3-0.4,0.7-0.6,1l-4.7,0.8c-0.8,0.1-1.3,0.8-1.2,1.6c0,0.2,0.1,0.4,0.2,0.6l2.8,3.8C8.1,37.2,8,37.6,7.9,38l-4.4,1.7
		c-0.4,0.2-0.8,0.5-0.9,1c-0.1,0.5,0,1,0.4,1.3l3.5,3.2c0,0.4-0.1,0.8-0.1,1.2l-4,2.5C2,49.1,1.7,49.5,1.7,50c0,0.5,0.2,0.9,0.7,1.2
		l4,2.5c0,0.4,0.1,0.8,0.1,1.2L3,58.1c-0.4,0.3-0.5,0.8-0.4,1.3c0.1,0.5,0.4,0.8,0.9,1L7.9,62c0.1,0.4,0.2,0.8,0.3,1.1l-2.7,3.9
		C5,67.7,5.2,68.5,5.8,69c0.2,0.1,0.4,0.2,0.6,0.2l4.7,0.8c0.2,0.4,0.4,0.7,0.6,1l-2,4.3c-0.3,0.7-0.1,1.5,0.6,1.9
		c0.2,0.1,0.4,0.2,0.7,0.1l4.7-0.2c0.2,0.3,0.5,0.6,0.8,0.9l-1.1,4.6c-0.2,0.7,0.3,1.5,1,1.7c0.2,0.1,0.4,0.1,0.7,0l4.6-1.1
		c0.3,0.3,0.6,0.5,0.9,0.8l-0.2,4.7c0,0.5,0.2,0.9,0.6,1.2c0.4,0.3,0.9,0.3,1.3,0.1l4.3-2l1,0.6l0.8,4.7c0.1,0.8,0.8,1.3,1.6,1.2
		c0.2,0,0.4-0.1,0.6-0.3l3.8-2.8l1.1,0.3l1.7,4.4c0.2,0.4,0.5,0.8,1,0.9c0.5,0.1,1-0.1,1.3-0.4l3.2-3.5c0.4,0,0.8,0.1,1.2,0.1l2.5,4
		c0.4,0.6,1.2,0.9,1.9,0.5c0.2-0.1,0.3-0.3,0.5-0.5l2.5-4c0.4,0,0.8-0.1,1.2-0.1l3.2,3.5c0.3,0.4,0.8,0.5,1.3,0.4
		c0.5-0.1,0.8-0.4,1-0.9l1.7-4.4l1.1-0.3l3.8,2.8c0.6,0.4,1.5,0.3,1.9-0.3c0.1-0.2,0.2-0.4,0.2-0.6l0.8-4.7l1.1-0.6l4.5,2
		c0.7,0.3,1.5,0.1,1.9-0.6c0.1-0.2,0.2-0.5,0.1-0.7L76.8,84c0.3-0.3,0.6-0.5,0.9-0.8l4.6,1.1c0.7,0.2,1.5-0.3,1.7-1
		c0.1-0.2,0.1-0.4,0-0.6L82.9,78c0.3-0.3,0.5-0.6,0.7-0.9l4.7,0.2c0.8,0,1.4-0.6,1.5-1.3c0-0.2,0-0.5-0.1-0.7l-2-4.3
		c0.2-0.3,0.4-0.7,0.6-1l4.7-0.8c0.8-0.1,1.3-0.8,1.1-1.6c0-0.2-0.1-0.4-0.2-0.6L91,63.2c0.1-0.4,0.2-0.8,0.3-1.1l4.4-1.7
		c0.4-0.2,0.8-0.5,0.9-1c0.1-0.5-0.1-1-0.4-1.3l-3.5-3.2l0.1-1.2l4-2.5c0.4-0.2,0.7-0.7,0.7-1.2C97.6,49.5,97.4,49.1,96.9,48.9
		L96.9,48.9z M70,82.3c-1.5-0.3-2.5-1.9-2.2-3.4s1.9-2.5,3.4-2.2c1.5,0.3,2.5,1.8,2.2,3.4C73.1,81.7,71.5,82.7,70,82.3
		C70,82.3,70,82.3,70,82.3z M68.6,73.1c-1.4-0.3-2.8,0.6-3.1,2c0,0,0,0,0,0l-1.4,6.7c-4.6,2.1-9.5,3.1-14.5,3.1
		c-5.1,0-10.1-1.1-14.8-3.3l-1.4-6.7c-0.3-1.4-1.7-2.3-3.1-2l-5.9,1.3c-1.1-1.1-2.1-2.3-3-3.6h28.7c0.3,0,0.5,0,0.5-0.3V60.1
		c0-0.3-0.2-0.3-0.5-0.3h-8.4v-6.4h9.1c0.8,0,4.4,0.2,5.6,4.8c0.4,1.4,1.2,6,1.7,7.5c0.5,1.7,2.7,5,5.1,5h14.3c0.2,0,0.3,0,0.5,0
		c-1,1.3-2.1,2.6-3.2,3.8L68.6,73.1L68.6,73.1z M28.9,82.2c-1.5,0.3-3.1-0.7-3.4-2.2c-0.3-1.5,0.7-3.1,2.2-3.4
		c1.5-0.3,3,0.6,3.4,2.2C31.5,80.3,30.5,81.8,28.9,82.2C28.9,82.2,28.9,82.2,28.9,82.2L28.9,82.2z M18,38.1c0.6,1.4,0,3.1-1.4,3.8
		c-1.4,0.6-3.1,0-3.8-1.4c-0.6-1.4,0-3.1,1.4-3.8c0,0,0,0,0,0C15.7,36,17.4,36.7,18,38.1z M14.7,46l6.1-2.7c1.3-0.6,1.9-2.1,1.3-3.4
		L20.9,37h5v22.3h-10c-0.9-3.1-1.3-6.4-1.3-9.6L14.7,46z M41.6,43.8v-6.6h11.8c0.6,0,4.3,0.7,4.3,3.5c0,2.3-2.8,3.1-5.2,3.1H41.6
		L41.6,43.8z M84.6,49.8c0,0.9,0,1.8-0.1,2.6h-3.6c-0.4,0-0.5,0.2-0.5,0.6v1.7c0,3.9-2.2,4.7-4.1,5s-3.9-0.8-4.1-1.9
		c-1.1-6.1-2.9-7.4-5.7-9.6c3.5-2.2,7.2-5.5,7.2-10c0-4.8-3.3-7.8-5.5-9.3c-2.3-1.5-4.8-2.3-7.5-2.5H23.4c5.1-5.8,12-9.7,19.6-11.1
		l4.4,4.6c1,1,2.6,1.1,3.7,0.1c0,0,0,0,0,0l4.9-4.7c10.1,1.9,18.9,8.2,24,17.1L76.7,40c-0.6,1.3,0,2.8,1.3,3.4l6.5,2.9
		C84.6,47.4,84.6,48.6,84.6,49.8L84.6,49.8z M47.4,11.4c1.1-1.1,2.9-1.1,4,0.1c1.1,1.1,1.1,2.9-0.1,4s-2.9,1.1-4-0.1c0,0,0,0,0,0
		C46.2,14.2,46.3,12.4,47.4,11.4z M80.8,38.2c0.6-1.4,2.3-2.1,3.8-1.4s2.1,2.3,1.4,3.8c-0.6,1.4-2.3,2.1-3.7,1.4
		C80.8,41.4,80.1,39.7,80.8,38.2C80.7,38.3,80.8,38.2,80.8,38.2z"/>
</g>
</svg>
