<?xml version="1.0" encoding="utf-8"?>
<!-- Generator: Adobe Illustrator 24.0.1, SVG Export Plug-In . SVG Version: 6.00 Build 0)  -->
<svg version="1.1" id="Layer_1" xmlns="http://www.w3.org/2000/svg" xmlns:xlink="http://www.w3.org/1999/xlink" x="0px" y="0px"
	 viewBox="0 0 100 100" enable-background="new 0 0 100 100" xml:space="preserve">
<title>SASS</title>
<g id="Layer_7">
	<path fill="#CD6799" stroke="#000000" stroke-miterlimit="10" d="M84.1,55.4c-2.9,0-5.8,0.7-8.4,2c-0.8-1.4-1.5-2.9-1.9-4.4
		c-0.3-1.2-0.3-2.4-0.2-3.7c0.3-1.4,0.6-2.7,1.1-4c0-0.2-0.2-1-2.1-1s-3.5,0.4-3.7,0.8c-0.3,0.9-0.6,1.9-0.8,2.8
		c-0.3,1.7-3.7,7.8-5.7,11c-1.3-2.1-1.8-4.5-1.4-6.9c0.3-1.4,0.6-2.7,1.1-4c0-0.2-0.2-1-2.1-1s-3.5,0.3-3.7,0.8s-0.4,1.7-0.8,2.8
		s-5,11.3-6.1,13.9c-0.6,1.3-1.1,2.4-1.5,3.2l0,0c0,0,0,0.1-0.1,0.1l-0.5,1l0,0c-0.3,0.5-0.5,0.9-0.7,0.9c-0.3-0.9-0.3-1.9,0-2.9
		c0.7-3.5,2.3-9,2.3-9.2s0.3-1.1-1.1-1.5c-0.6-0.3-1.4-0.2-1.9,0.3c-0.1,0-0.2,0.3-0.2,0.3s1.5-6.2-2.8-6.2c-2.7,0-6.4,3-8.2,5.6
		l-6.3,3.4c-1,0.6-2,1.1-3,1.7l-0.2-0.2c-5.2-5.6-14.8-9.5-14.4-17c0.1-2.7,1.1-9.9,18.5-18.5c14.3-7,25.8-5.1,27.7-0.7
		c2.8,6.2-6.1,17.7-20.9,19.4c-5.6,0.6-8.6-1.5-9.4-2.4s-0.9-0.9-1.2-0.7c-0.5,0.3-0.2,1,0,1.5c1.1,2.1,3.1,3.6,5.3,4.2
		c2.7,0.9,9.3,1.4,17.4-1.7c9-3.5,16-13.1,13.9-21.2s-15.7-10.9-28.5-6.3c-7.6,2.7-16,7-21.9,12.6C4.6,36.7,3.5,42.5,4,44.9
		C5.6,53.5,17.4,59,22.2,63.2l-0.6,0.3c-2.4,1.2-11.4,5.9-13.6,10.9c-2.5,5.7,0.4,9.7,2.4,10.2c6.1,1.7,12.3-1.3,15.7-6.3
		s2.9-11.5,1.4-14.5c0,0,0-0.1-0.1-0.1l1.9-1.1c1.2-0.7,2.4-1.4,3.4-1.9c-0.7,2-1.1,4.1-1.2,6.2c-0.3,3.2,1.1,7.3,2.8,9
		c0.6,0.5,1.4,0.8,2.2,0.7c2,0,2.9-1.7,3.9-3.6c1.2-2.4,2.3-5.2,2.3-5.2s-1.4,7.6,2.4,7.6c1.4,0,2.7-1.8,3.3-2.7l0,0l0.1-0.2
		l0.2-0.3l0,0c0.5-1,1.8-3.1,3.6-6.7c2.4-4.7,4.6-10.5,4.6-10.5c0.2,1.3,0.5,2.5,0.9,3.8c0.5,1.5,1.2,2.9,1.9,4.3
		c-0.5,0.8-0.9,1.2-0.9,1.2l0,0c-0.5,0.6-0.9,1.2-1.5,1.8c-1.6,1.7-3,3.6-4.3,5.5c-0.4,0.7-0.2,1.5,0.4,2c0.7,0.4,1.5,0.5,2.3,0.4
		c1.2-0.1,2.3-0.3,3.4-0.8c1.1-0.4,2.1-0.9,3-1.6c1.9-1.3,3-3.5,2.8-5.8c-0.1-1.4-0.5-2.8-1.1-4.1c0.2-0.2,0.3-0.5,0.5-0.7
		c1.9-2.8,3.6-5.8,5.1-8.8c0.2,1.3,0.5,2.5,0.9,3.8c0.4,1.3,1,2.5,1.7,3.8c-2.2,1.7-3.9,3.9-5,6.4c-1.1,3.1-0.2,4.5,1.3,4.8
		c0.9,0.1,1.7-0.1,2.5-0.5c1.1-0.4,2.2-0.9,3.1-1.6c1.8-1.3,3.6-3.2,3.5-5.8c-0.1-1.2-0.3-2.3-0.8-3.4c2.9-1.1,6-1.4,9-1
		c8.1,1,9.7,6,9.4,8.1c-0.3,1.5-1.2,2.9-2.6,3.6c-0.6,0.4-0.8,0.5-0.7,0.7s0.3,0.4,0.8,0.3c2.5-0.8,4.2-3,4.4-5.7
		C97.3,60.8,92.5,55.4,84.1,55.4z M21.6,76.5c-2.7,2.9-6.4,4-8,3.1s-1.1-5.3,2.2-8.4c2-1.8,4.1-3.3,6.3-4.7l1.7-1l0.2-0.1l0,0
		l0.4-0.3C25.6,69.1,24.5,73.5,21.6,76.5z M41.2,63.2c-0.9,2.3-2.9,8.1-4.1,7.8c-1-0.3-1.7-4.7-0.2-9.1c0.7-2.1,1.8-4.1,3.2-5.8
		c1.5-1.6,3.1-2.2,3.5-1.5C44,55.4,41.7,61.8,41.2,63.2z M57.3,70.9c-0.4,0.2-0.8,0.3-0.9,0.2s0.2-0.3,0.2-0.3s2-2.2,2.8-3.2
		c0.5-0.6,1-1.3,1.6-2v0.2C61,68.4,58.4,70.2,57.3,70.9z M69.8,68.1c-0.3-0.2-0.2-0.9,0.7-3c0.7-1.4,1.6-2.6,2.8-3.6
		c0.2,0.5,0.3,1,0.3,1.5C73.6,65.4,72,67.4,69.8,68.1z"/>
</g>
</svg>
