<?xml version="1.0" encoding="utf-8"?>
<!-- Generator: Adobe Illustrator 24.0.1, SVG Export Plug-In . SVG Version: 6.00 Build 0)  -->
<svg version="1.1" id="Layer_1" xmlns="http://www.w3.org/2000/svg" xmlns:xlink="http://www.w3.org/1999/xlink" x="0px" y="0px"
	 viewBox="0 0 100 100" enable-background="new 0 0 100 100" xml:space="preserve">
<title>TypeScript</title>
<g id="Layer_9">
	<path fill="#3178C6" stroke="#000000" stroke-width="2" stroke-miterlimit="10" d="M14,5.2h72.2c4.8,0,8.8,3.9,8.8,8.8v72.2
		c0,4.8-3.9,8.8-8.8,8.8H14c-4.8,0-8.8-3.9-8.8-8.8V14C5.3,9.1,9.2,5.2,14,5.2z"/>
	<path fill-rule="evenodd" clip-rule="evenodd" fill="#FFFFFF" stroke="#000000" stroke-width="2" stroke-miterlimit="10" d="
		M60.8,76.5v8.8c1.6,0.8,3.3,1.4,5.1,1.7c2,0.4,4.1,0.5,6.1,0.5c2,0,4-0.2,6-0.6c1.7-0.3,3.4-1,4.9-1.9c1.4-0.9,2.6-2.2,3.3-3.7
		c0.8-1.8,1.2-3.7,1.2-5.6c0-1.4-0.2-2.9-0.7-4.2c-0.4-1.2-1.2-2.3-2.1-3.2c-0.9-1-2-1.8-3.2-2.4c-1.4-0.8-2.8-1.5-4.2-2.1
		c-1.2-0.5-2.1-0.9-3.2-1.4c-0.8-0.4-1.6-0.9-2.3-1.4c-0.6-0.4-1.1-0.9-1.5-1.5c-0.3-0.5-0.5-1.1-0.5-1.8c0-0.6,0.2-1.1,0.5-1.6
		c0.3-0.5,0.8-0.9,1.3-1.3c0.7-0.4,1.4-0.7,2.1-0.8c0.9-0.2,1.9-0.3,2.8-0.3c0.8,0,1.5,0.1,2.3,0.2c0.8,0.1,1.6,0.3,2.4,0.5
		c0.8,0.2,1.7,0.5,2.5,0.9c0.7,0.3,1.4,0.7,2.1,1.2v-8.2c-1.4-0.5-2.9-0.9-4.4-1.1c-1.8-0.3-3.6-0.4-5.5-0.4c-2,0-4,0.2-6,0.7
		c-1.8,0.4-3.4,1.1-4.9,2.1c-1.4,0.9-2.5,2.2-3.3,3.7c-0.9,1.6-1.3,3.4-1.2,5.3c-0.1,2.4,0.7,4.8,2.3,6.7c1.5,1.9,3.9,3.3,6.8,4.7
		c1.2,0.5,2.3,1,3.3,1.5c0.9,0.4,1.8,0.9,2.6,1.5c0.7,0.4,1.3,1,1.8,1.7c0.4,0.6,0.7,1.3,0.7,2.1c0,0.6-0.1,1.1-0.4,1.6
		c-0.3,0.5-0.7,1-1.2,1.3c-0.7,0.4-1.4,0.7-2.1,0.8c-1,0.2-2,0.3-3,0.3c-1.9,0-3.8-0.3-5.6-1c-1.9-0.7-3.7-1.7-5.3-3L60.8,76.5z
		 M46.1,55h11.2v-7.2H25.9V55h11.2v32.1h8.9V55z"/>
</g>
</svg>
