<?xml version="1.0" encoding="utf-8"?>
<!-- Generator: Adobe Illustrator 24.0.1, SVG Export Plug-In . SVG Version: 6.00 Build 0)  -->
<svg version="1.1" id="Layer_1" xmlns="http://www.w3.org/2000/svg" xmlns:xlink="http://www.w3.org/1999/xlink" x="0px" y="0px"
	 viewBox="0 0 100 100" enable-background="new 0 0 100 100" xml:space="preserve">
<title>Unity</title>
<g id="Layer_20">
	<path fill="#4C4C4C" stroke="#000000" stroke-width="2" stroke-miterlimit="10" d="M88,67.4V27.5L53.5,7.5v15.3L67,30.7
		c0.5,0.4,0.5,1.1,0,1.3l-16.1,9.3c-0.4,0.3-1,0.3-1.4,0l-16-9.3c-0.3-0.2-0.5-0.6-0.3-0.9c0.1-0.2,0.2-0.3,0.3-0.4L47,22.8V7.5
		L12.3,27.5v39.9l13.2-7.7V44c0-0.5,0.5-0.8,0.9-0.7c0,0,0.1,0,0.1,0c0,0,0.1,0,0.1,0l16,9.3c0.5,0.2,0.7,0.7,0.7,1.3v18.5
		c0,0.5-0.5,0.8-0.9,0.7c0,0-0.1,0-0.1,0c0,0-0.1,0-0.1,0l-13.5-7.9l-13.2,7.7L50.1,93l34.6-19.9l-13.2-7.7l-13.5,7.9
		c-0.5,0.3-1.1,0-1.1-0.7V54c0-0.5,0.3-1,0.7-1.3l16-9.3c0.5-0.3,1.1,0,1.1,0.7v15.7L88,67.4z"/>
	<path stroke="#000000" stroke-width="2" stroke-miterlimit="10" d="M50.1,93l34.6-19.9l-13.2-7.7l-13.5,7.9c-0.5,0.3-1.1,0-1.1-0.7
		V54c0-0.5,0.3-1,0.7-1.3l16-9.3c0.5-0.3,1.1,0,1.1,0.7v15.7l13.2,7.7V27.5L50.1,49.4V93z"/>
	<path fill="#808080" stroke="#000000" stroke-width="2" stroke-miterlimit="10" d="M53.5,7.5v15.3L67,30.7c0.5,0.4,0.5,1.1,0,1.3
		l-16.1,9.3c-0.4,0.3-1,0.3-1.4,0l-16-9.3c-0.3-0.2-0.5-0.6-0.3-0.9c0.1-0.2,0.2-0.3,0.3-0.4L47,22.8V7.5L12.3,27.5l37.8,21.9
		l37.8-21.9L53.5,7.5z"/>
	<path fill="#4C4C4C" stroke="#000000" stroke-width="2" stroke-miterlimit="10" d="M42.4,73.3l-13.5-7.9l-13.2,7.7L50.3,93V49.4
		L12.3,27.5v39.9l13.2-7.7V44c0-0.5,0.5-0.8,0.9-0.7c0,0,0.1,0,0.1,0c0,0,0.1,0,0.1,0l16,9.3c0.5,0.2,0.7,0.7,0.7,1.3v18.5
		C43.5,73.1,42.9,73.6,42.4,73.3z"/>
</g>
</svg>
