<?xml version="1.0" encoding="utf-8"?>
<!-- Generator: Adobe Illustrator 24.0.1, SVG Export Plug-In . SVG Version: 6.00 Build 0)  -->
<svg version="1.1" id="Layer_1" xmlns="http://www.w3.org/2000/svg" xmlns:xlink="http://www.w3.org/1999/xlink" x="0px" y="0px"
	 viewBox="0 0 100 100" enable-background="new 0 0 100 100" xml:space="preserve">
<title>Visual Studio</title>
<g id="Layer_18">
	<path fill="#52218A" stroke="#000000" stroke-width="2" stroke-miterlimit="10" d="M21.6,71c-1,0.8-2.3,1-3.5,0.5L12.1,69
		c-1.2-0.5-2-1.7-2.1-3.1V30.4c0-1.3,0.8-2.5,2.1-3l6.1-2.5c1.2-0.5,2.5-0.3,3.5,0.5l1.4,1.1c-0.8-0.6-2-0.4-2.6,0.4
		C20.1,27.2,20,27.6,20,28v40.3c0,0.7,0.4,1.3,1,1.7c0.6,0.3,1.4,0.3,1.9-0.1L21.6,71z"/>
	<path fill="#6C33AF" stroke="#000000" stroke-width="2" stroke-miterlimit="10" d="M12.1,69c-1.2-0.5-2-1.7-2.1-3.1v-0.3
		c0,0.8,0.5,1.5,1.2,1.8c0.7,0.3,1.6,0.1,2.1-0.5L65,9.8c1.5-1.5,3.8-1.9,5.7-1l16.5,8c1.7,0.8,2.8,2.6,2.8,4.5v0.2
		c0-1.7-1.4-3.2-3.2-3.2c-0.7,0-1.4,0.3-2,0.7L22.9,69.8L21.6,71c-1,0.8-2.3,1-3.5,0.5L12.1,69z"/>
	<path fill="#854CC7" stroke="#000000" stroke-width="2" stroke-miterlimit="10" d="M12.1,27.3c-1.2,0.5-2,1.7-2.1,3v0.3
		c0-0.8,0.5-1.5,1.2-1.8c0.7-0.3,1.6-0.1,2.1,0.5L65,86.5c1.5,1.5,3.8,1.9,5.7,1l16.5-7.9c1.8-0.8,2.9-2.6,2.8-4.6v-0.2
		c0,1.7-1.4,3.2-3.2,3.2c-0.7,0-1.4-0.3-2-0.7L22.9,26.5l-1.4-1.2c-1-0.8-2.3-1-3.5-0.5L12.1,27.3z"/>
	<path fill="#B179F1" stroke="#000000" stroke-width="2" stroke-miterlimit="10" d="M70.7,87.5c-1.9,0.9-4.2,0.5-5.7-1
		c1.1,1.1,3,1.1,4.1,0c0.5-0.5,0.9-1.3,0.9-2.1V11.9c0-1.6-1.3-2.9-2.9-2.9c-0.8,0-1.5,0.3-2.1,0.9c1.5-1.5,3.8-1.9,5.7-1l16.5,7.9
		c1.7,0.8,2.8,2.6,2.8,4.5V75c0,1.9-1.1,3.7-2.8,4.5L70.7,87.5z"/>
	
		<linearGradient id="SVGID_1_" gradientUnits="userSpaceOnUse" x1="-927.168" y1="335.3376" x2="-927.168" y2="335.6476" gradientTransform="matrix(256 0 0 254.67 237405 -85391.3984)">
		<stop  offset="0" style="stop-color:#FFFFFF"/>
		<stop  offset="1" style="stop-color:#FFFFFF;stop-opacity:0"/>
	</linearGradient>
	<path fill="url(#SVGID_1_)" fill-opacity="0.25" stroke="#000000" stroke-width="2" stroke-miterlimit="10" d="M67.4,87.8
		c1.1,0.2,2.3,0.1,3.3-0.4l16.5-7.9c1.7-0.8,2.8-2.6,2.8-4.5V21.3c0-1.9-1.1-3.7-2.8-4.5L70.7,8.9c-1.9-0.9-4.2-0.5-5.7,1L38.4,39.2
		L22.9,26.5l-1.4-1.2c-0.8-0.7-1.9-1-3-0.7c-0.2,0-0.3,0.1-0.4,0.1l-6.1,2.5c-1.2,0.5-2,1.6-2.1,2.8v36.1c0.1,1.2,0.9,2.3,2.1,2.8
		l6.1,2.5c0.1,0.1,0.3,0.1,0.4,0.2c1.1,0.3,2.2,0,3-0.7l1.4-1.1l15.5-12.7L65,86.5C65.7,87.2,66.5,87.6,67.4,87.8z M70,31.2
		L49.3,48.2L70,65.1V31.2z M20,36.7l10.3,11.4L20,59.6V36.7z"/>
</g>
</svg>
