<?xml version="1.0" encoding="utf-8"?>
<!-- Generator: Adobe Illustrator 24.0.1, SVG Export Plug-In . SVG Version: 6.00 Build 0)  -->
<svg version="1.1" id="Layer_1" xmlns="http://www.w3.org/2000/svg" xmlns:xlink="http://www.w3.org/1999/xlink" x="0px" y="0px"
	 viewBox="0 0 100 100" enable-background="new 0 0 100 100" xml:space="preserve">
<title>Visual Studio Code</title>
<g id="Layer_19">
	<path fill="#2489CA" stroke="#000000" stroke-width="2" stroke-miterlimit="10" d="M3.5,35.8c0,0-2.3-1.7,0.5-3.9l6.4-5.8
		c1-1.1,2.7-1.2,3.8-0.3l59.3,44.9v21.6c0,0,0,3.4-4.4,3L3.5,35.8z"/>
	<path fill="#1070B3" stroke="#000000" stroke-width="2" stroke-miterlimit="10" d="M18.8,49.7L3.5,63.6c0,0-1.6,1.2,0,3.3l7.1,6.5
		c0,0,1.7,1.8,4.2-0.3L31,60.8L18.8,49.7z"/>
	<path fill="#0877B9" stroke="#000000" stroke-width="2" stroke-miterlimit="10" d="M45.6,49.8l28-21.4L73.5,7c0,0-1.2-4.7-5.2-2.2
		L31,38.7L45.6,49.8z"/>
	<path fill="#3C99D4" stroke="#000000" stroke-width="2" stroke-miterlimit="10" d="M69.1,95.4c0.9,1,2.3,1.4,3.6,1.1l21.9-10.8
		c2.8-1.9,2.4-4.3,2.4-4.3V17.2c0-2.8-2.9-3.8-2.9-3.8l-19-9.1c-4.1-2.6-6.8,0.5-6.8,0.5s3.5-2.5,5.2,2.3v85c0,0.6-0.1,1.2-0.4,1.7
		c-0.5,1-1.6,1.9-4.2,1.6L69.1,95.4z"/>
</g>
</svg>
